<svg xmlns="http://www.w3.org/2000/svg" viewBox="0 0 256 256" xml:space="preserve"><path fill="#CECECE" d="M232.227 219.324H23.773a8.78 8.78 0 0 1-8.78-8.78V34.483a8.78 8.78 0 0 1 8.78-8.78h208.455a8.78 8.78 0 0 1 8.78 8.78v176.06a8.782 8.782 0 0 1-8.781 8.781z"/><path fill="#AFAFAF" d="M29.659 210.543V34.483a8.78 8.78 0 0 1 8.78-8.78H23.773a8.78 8.78 0 0 0-8.78 8.78v176.06a8.78 8.78 0 0 0 8.78 8.78H38.44a8.78 8.78 0 0 1-8.781-8.78z"/><path fill="#E2E2E2" d="M226.341 210.543V34.483a8.78 8.78 0 0 0-8.78-8.78h14.667a8.78 8.78 0 0 1 8.78 8.78v176.06a8.78 8.78 0 0 1-8.78 8.78h-14.667a8.78 8.78 0 0 0 8.78-8.78z"/><path fill="#63BCE7" d="M241.007 34.483a8.78 8.78 0 0 0-8.78-8.78H23.773a8.78 8.78 0 0 0-8.78 8.78v33.722h226.014V34.483z"/><path fill="#6377E7" d="M38.439 25.704H23.773a8.78 8.78 0 0 0-8.78 8.78v33.722H29.66V34.483a8.778 8.778 0 0 1 8.779-8.779z"/><path fill="#63E2E7" d="M217.56 25.704h14.667a8.78 8.78 0 0 1 8.78 8.78v33.722H226.34V34.483a8.778 8.778 0 0 0-8.78-8.779z"/><g fill="#F46275"><circle cx="42.68" cy="46.954" r="7.084"/><circle cx="69.964" cy="46.954" r="7.084"/><circle cx="97.249" cy="46.954" r="7.084"/></g><path fill="#F46275" d="M215.007 52.815h-89.632c-2.968 0-5.397-2.429-5.397-5.397 0-2.968 2.429-5.397 5.397-5.397h89.632c2.968 0 5.397 2.429 5.397 5.397 0 2.969-2.429 5.397-5.397 5.397z"/><path fill="#CECECE" d="M175.422 161.028a47.655 47.655 0 0 1-1.674 4.041l12.424 12.424-24.43 24.43-12.424-12.424a49.492 49.492 0 0 1-4.041 1.674v17.577h-34.54v-17.577a49.492 49.492 0 0 1-4.041-1.674l-12.424 12.424-24.43-24.43 12.424-12.424a47.655 47.655 0 0 1-1.674-4.041H63.014v-34.54h17.577a49.492 49.492 0 0 1 1.674-4.041l-12.424-12.424 24.43-24.43 12.424 12.437a49.603 49.603 0 0 1 4.041-1.687V78.779h34.54v17.564a49.96 49.96 0 0 1 4.041 1.687l12.424-12.437 24.43 24.43-12.424 12.424a49.492 49.492 0 0 1 1.674 4.041h17.564v34.54h-17.563z"/><circle fill="#63BCE7" cx="128" cy="143.765" r="38.31"/><circle fill="#707070" cx="128" cy="130.505" r="13.627"/><path fill="#F8AF23" d="M146.876 170.651h-37.752v-13.706c0-7.076 5.736-12.813 12.812-12.813h12.127c7.076 0 12.812 5.736 12.812 12.813v13.706z"/><g fill="#3F3679"><path d="M42.68 38.371c-4.733 0-8.584 3.851-8.584 8.583 0 4.733 3.851 8.584 8.584 8.584s8.584-3.851 8.584-8.584c0-4.732-3.851-8.583-8.584-8.583zm0 14.167a5.59 5.59 0 0 1-5.584-5.584c0-3.078 2.505-5.583 5.584-5.583s5.584 2.505 5.584 5.583a5.59 5.59 0 0 1-5.584 5.584zM69.964 38.371c-4.732 0-8.583 3.851-8.583 8.583 0 4.733 3.851 8.584 8.583 8.584 4.733 0 8.584-3.851 8.584-8.584 0-4.732-3.851-8.583-8.584-8.583zm0 14.167a5.59 5.59 0 0 1-5.583-5.584 5.59 5.59 0 0 1 5.583-5.583 5.59 5.59 0 0 1 5.584 5.583 5.59 5.59 0 0 1-5.584 5.584zM97.249 38.371c-4.733 0-8.584 3.851-8.584 8.583 0 4.733 3.851 8.584 8.584 8.584s8.584-3.851 8.584-8.584c0-4.732-3.851-8.583-8.584-8.583zm0 14.167a5.59 5.59 0 0 1-5.584-5.584c0-3.078 2.505-5.583 5.584-5.583s5.584 2.505 5.584 5.583a5.59 5.59 0 0 1-5.584 5.584zM215.007 40.521h-89.632a6.904 6.904 0 0 0-6.896 6.896 6.904 6.904 0 0 0 6.896 6.897h89.632a6.904 6.904 0 0 0 6.897-6.897 6.904 6.904 0 0 0-6.897-6.896zm0 10.794h-89.632a3.901 3.901 0 0 1-3.896-3.897 3.9 3.9 0 0 1 3.896-3.896h89.632a3.901 3.901 0 0 1 3.897 3.896 3.901 3.901 0 0 1-3.897 3.897zM27.323 228.797H9.32a1.5 1.5 0 0 0 0 3h18.003a1.5 1.5 0 0 0 0-3zM246.68 228.797h-18.003a1.5 1.5 0 0 0 0 3h18.003a1.5 1.5 0 0 0 0-3zM218.479 228.797H37.521a1.5 1.5 0 0 0 0 3H218.48a1.5 1.5 0 0 0-.001-3z"/><path d="M9.32 220.823h237.359a1.5 1.5 0 0 0 0-3h-7.203a10.248 10.248 0 0 0 3.03-7.279V34.483c0-5.669-4.611-10.28-10.279-10.28H23.772c-5.668 0-10.279 4.611-10.279 10.28v176.061c0 2.842 1.16 5.417 3.03 7.279H9.32a1.5 1.5 0 0 0 0 3zm7.173-186.34c0-4.015 3.266-7.28 7.279-7.28h208.455c4.014 0 7.279 3.266 7.279 7.28v32.222H16.493V34.483zm0 176.061V69.705h223.014v140.839c0 4.014-3.266 7.279-7.279 7.279H23.772c-4.013 0-7.279-3.265-7.279-7.279z"/><path d="M192.985 124.988h-16.523a52.306 52.306 0 0 0-.919-2.215l11.689-11.69a1.5 1.5 0 0 0 0-2.121l-24.43-24.43c-.564-.563-1.562-.563-2.122 0l-11.688 11.701a51.683 51.683 0 0 0-2.216-.929V78.778a1.5 1.5 0 0 0-1.5-1.5h-34.54a1.5 1.5 0 0 0-1.5 1.5v16.526c-.712.278-1.447.586-2.216.929L95.333 84.532a1.501 1.501 0 0 0-2.123 0l-24.431 24.43a1.5 1.5 0 0 0 0 2.122l11.69 11.69a50.505 50.505 0 0 0-.919 2.215H63.015a1.5 1.5 0 0 0-1.5 1.5v34.539a1.5 1.5 0 0 0 1.5 1.5h16.534c.279.724.585 1.458.921 2.217l-11.69 11.688a1.5 1.5 0 0 0 0 2.122l24.431 24.431c.563.563 1.559.563 2.121 0l11.689-11.69c.743.328 1.482.635 2.215.919v16.537a1.5 1.5 0 0 0 1.5 1.5h34.54a1.5 1.5 0 0 0 1.5-1.5v-16.537a52.306 52.306 0 0 0 2.215-.919l11.69 11.69c.563.563 1.559.563 2.121 0l24.43-24.431a1.5 1.5 0 0 0 0-2.121l-11.688-11.689c.336-.758.641-1.493.92-2.216h16.521a1.5 1.5 0 0 0 1.5-1.5V126.49c0-.83-.672-1.502-1.5-1.502zm-1.5 34.539h-16.063a1.5 1.5 0 0 0-1.412.994 45.992 45.992 0 0 1-1.622 3.915 1.498 1.498 0 0 0 .3 1.693l11.363 11.363-22.309 22.31-11.364-11.364a1.503 1.503 0 0 0-1.693-.3 48.564 48.564 0 0 1-3.919 1.624 1.498 1.498 0 0 0-.989 1.41v16.077h-31.54v-16.077a1.5 1.5 0 0 0-.989-1.41 48.676 48.676 0 0 1-3.919-1.624 1.5 1.5 0 0 0-1.693.3l-11.363 11.364-22.31-22.31 11.364-11.363a1.5 1.5 0 0 0 .299-1.693 45.687 45.687 0 0 1-1.621-3.914 1.498 1.498 0 0 0-1.412-.995H64.515v-31.539h16.077a1.5 1.5 0 0 0 1.411-.99 47.843 47.843 0 0 1 1.622-3.917 1.498 1.498 0 0 0-.299-1.694l-11.364-11.364 22.309-22.308 11.363 11.376a1.504 1.504 0 0 0 1.694.299c1.418-.66 2.7-1.195 3.919-1.637.594-.215.989-.778.989-1.41V80.278h31.54v16.064a1.5 1.5 0 0 0 .989 1.41c1.224.443 2.505.979 3.918 1.637a1.5 1.5 0 0 0 1.695-.299l11.364-11.376 22.308 22.308-11.363 11.364a1.502 1.502 0 0 0-.3 1.693 48.564 48.564 0 0 1 1.624 3.919c.215.594.778.989 1.41.989h16.063v31.54z"/><path d="M128 103.954c-21.951 0-39.811 17.859-39.811 39.811s17.859 39.811 39.811 39.811 39.811-17.859 39.811-39.811-17.86-39.811-39.811-39.811zm0 76.621c-20.298 0-36.811-16.513-36.811-36.811s16.513-36.811 36.811-36.811 36.811 16.513 36.811 36.811-16.513 36.811-36.811 36.811z"/><path d="M136.671 142.882c3.898-2.739 6.457-7.262 6.457-12.377 0-8.341-6.786-15.127-15.128-15.127s-15.128 6.786-15.128 15.127c0 5.116 2.559 9.638 6.457 12.377-6.649 1.231-11.705 7.063-11.705 14.063v13.706a1.5 1.5 0 0 0 1.5 1.5h37.752a1.5 1.5 0 0 0 1.5-1.5v-13.706c0-7-5.056-12.832-11.705-14.063zm-20.799-12.377c0-6.687 5.44-12.127 12.128-12.127s12.128 5.44 12.128 12.127c0 6.688-5.44 12.128-12.128 12.128s-12.128-5.441-12.128-12.128zm29.504 38.646h-34.752v-12.206c0-6.237 5.075-11.313 11.313-11.313h12.127c6.237 0 11.313 5.075 11.313 11.313v12.206z"/></g></svg>