<svg id="Shapes" xmlns="http://www.w3.org/2000/svg" viewBox="0 0 512 512"><defs><style>.cls-1{fill:#018d8d;}.cls-2{fill:#11100c;}.cls-3{fill:#febd97;}.cls-4{fill:#1c3a3e;}.cls-5{fill:#fff;}.cls-6{fill:#c73c1f;}.cls-7{fill:#b52b15;}.cls-8{fill:#333;}.cls-9{fill:#080435;}.cls-10{opacity:0.3;}.cls-11{fill:#e46349;}.cls-12{fill:#c73d21;}.cls-13{fill:#f9867a;}.cls-14{fill:#0074db;}.cls-15{fill:#8ec1fa;}.cls-16{fill:#263238;}.cls-17{fill:#e6f2fc;}.cls-18{fill:#012827;}.cls-19{fill:#f99200;}.cls-20{fill:#ff8c79;}.cls-21{opacity:0.2;}.cls-22{fill:#d67500;}.cls-23{fill:#536268;}.cls-24{fill:#dd6654;}.cls-25{fill:#cb3c1d;}.cls-26{fill:#ea7a00;}.cls-27{fill:#2d2b26;}.cls-28{fill:#ff8c02;}.cls-29{fill:#f9a6a0;}.cls-30{fill:#42413f;}.cls-31{fill:#0b6969;}.cls-32{fill:#03514f;}.cls-33{fill:#ca3c21;}.cls-34{fill:#ff8900;}.cls-35{fill:#b25900;}.cls-36{fill:#0a6968;}.cls-37{fill:#f98c0a;}.cls-38{fill:#e27600;}.cls-39{fill:#ca3b26;}.cls-40{fill:#f4e6e4;}</style></defs><path class="cls-1" d="M403.96289,240.91943a1.03031,1.03031,0,0,1-.17187-.01464.9998.9998,0,0,1-.81446-1.15625q.43359-2.49684.791-4.9126a1.00011,1.00011,0,0,1,1.97851.29394q-.36181,2.439-.79882,4.96045A1,1,0,0,1,403.96289,240.91943Zm1.46289-9.89209a1.02014,1.02014,0,0,1-.12109-.00732,1.00119,1.00119,0,0,1-.873-1.11279c.20215-1.67139.37988-3.33448.52734-4.94239a1.00027,1.00027,0,0,1,1.99219.18262c-.14941,1.62695-.3291,3.30957-.5332,5A1.00071,1.00071,0,0,1,405.42578,231.02734Zm.91016-9.957c-.02051,0-.04-.00049-.06055-.00195a.9991.9991,0,0,1-.93848-1.05762c.09961-1.6626.16993-3.33105.21094-4.96045a1.0003,1.0003,0,0,1,1-.97461l.02539.00049a1.00028,1.00028,0,0,1,.97461,1.0249c-.042,1.65186-.11426,3.34375-.21484,5.02881A.99912.99912,0,0,1,406.33594,221.07031Zm.24023-9.99365a1.00036,1.00036,0,0,1-1-.98633c-.02344-1.68262-.08105-3.34863-.1709-4.95117a.99966.99966,0,1,1,1.9961-.11328c.09277,1.63135.15136,3.32617.1748,5.03711a.99982.99982,0,0,1-.98633,1.01367Zm-.56836-9.97217a1.00126,1.00126,0,0,1-.99414-.897c-.1709-1.65869-.38476-3.30664-.63574-4.89893a1.0004,1.0004,0,0,1,1.97656-.31054c.25489,1.62695.47363,3.31006.64942,5.00341a1.00039,1.00039,0,0,1-.89258,1.09766A.918.918,0,0,1,406.00781,201.10449Zm-1.55859-9.85937a1.00014,1.00014,0,0,1-.97656-.78809c-.35157-1.62256-.75293-3.231-1.19434-4.77978a1.00016,1.00016,0,0,1,1.92383-.54786c.45215,1.59034.86523,3.24024,1.22558,4.90381a1,1,0,0,1-.76562,1.18946A1.02493,1.02493,0,0,1,404.44922,191.24512Zm-2.74219-9.59033a.99989.99989,0,0,1-.93945-.65918c-.56641-1.55909-1.18946-3.09034-1.85059-4.55225a1,1,0,0,1,1.82227-.82422c.68262,1.50781,1.32422,3.08691,1.90722,4.69385a1.00045,1.00045,0,0,1-.93945,1.3418Zm-4.11914-9.082a1.00029,1.00029,0,0,1-.875-.51367c-.79687-1.43213-1.66113-2.83691-2.56836-4.17529a1.00028,1.00028,0,0,1,1.65625-1.12207c.93945,1.38623,1.834,2.84131,2.66016,4.32471a1.00047,1.00047,0,0,1-.873,1.48632Zm-5.59863-8.24853a.99962.99962,0,0,1-.77442-.36572c-1.03515-1.26123-2.13769-2.48536-3.27929-3.6377a1.00025,1.00025,0,0,1,1.42187-1.40723c1.18457,1.19678,2.3291,2.46729,3.4043,3.77637a1,1,0,0,1-.77246,1.63428Zm-7.01563-7.08838a.99483.99483,0,0,1-.6416-.23389c-1.24023-1.04052-2.55078-2.04248-3.89551-2.979a1,1,0,0,1,1.14258-1.6416c1.39453.9707,2.75293,2.00976,4.03809,3.08838a1,1,0,0,1-.64356,1.76611Zm-8.18652-5.7085a.99791.99791,0,0,1-.498-.1333c-1.39746-.80468-2.86328-1.57129-4.35644-2.27881a.99991.99991,0,0,1,.85547-1.80761c1.542.73047,3.05566,1.522,4.499,2.353a1.00018,1.00018,0,0,1-.5,1.8667Zm-9.02246-4.28369a.99878.99878,0,0,1-.35938-.06738c-1.50488-.58008-3.07324-1.123-4.66015-1.61328a1,1,0,0,1,.58984-1.91113c1.63086.5039,3.24219,1.062,4.78906,1.6582a1.00034,1.00034,0,0,1-.35937,1.93359Zm-9.5459-2.96a1.00766,1.00766,0,0,1-.23633-.02783c-1.56738-.37891-3.19531-.72266-4.83789-1.021a1,1,0,1,1,.35742-1.96777c1.67969.30518,3.34571.65674,4.95117,1.04443a1.00019,1.00019,0,0,1-.23437,1.97217ZM313.499,143.5a.99991.99991,0,0,1-.207-1.978c.07617-.01611,1.88867-.39843,5.01367-.81982a1.0002,1.0002,0,0,1,.26758,1.98242c-3.043.40967-4.84765.79-4.86523.79346A.98761.98761,0,0,1,313.499,143.5Zm34.87989-1.01221a.948.948,0,0,1-.12793-.0083c-1.60547-.20556-3.26465-.37646-4.92969-.50732a1.00013,1.00013,0,1,1,.15625-1.99414c1.69824.13379,3.38965.3081,5.02734.51806a.99987.99987,0,0,1-.126,1.9917Zm-24.96973-.35254a1.00011,1.00011,0,0,1-.08984-1.99609c1.66406-.15088,3.35644-.26953,5.03027-.353a.99978.99978,0,1,1,.09961,1.99707c-1.64649.08252-3.31152.19922-4.94824.34815C323.46973,142.13379,323.43945,142.13525,323.40918,142.13525Zm14.99414-.439-.03418-.00049c-1.71-.05664-3.36914-.07519-4.96191-.06006h-.00977a1,1,0,0,1-.00976-2c1.61914-.01709,3.30957.002,5.04785.061a1,1,0,0,1-.03223,1.99951Z"/><path class="cls-1" d="M207.00879,169.67188a1,1,0,0,1-.08789-1.9961c1.60254-.14307,2.5083-.17383,2.5459-.17529a1.00006,1.00006,0,1,1,.0664,1.999c-.00879,0-.894.03125-2.43457.16846C207.06836,169.67041,207.03857,169.67188,207.00879,169.67188Z"/><path class="cls-1" d="M139.86572,256.24072a1.0007,1.0007,0,0,1-.98047-.80761c-.31836-1.62305-.605-3.25293-.85254-4.84473a1.00011,1.00011,0,0,1,1.97657-.30664c.24316,1.56543.52539,3.16943.83886,4.7666a.99952.99952,0,0,1-.98242,1.19238Zm-1.49072-9.6416a1.0008,1.0008,0,0,1-.99268-.88965c-.18261-1.65136-.32617-3.30322-.42627-4.90967a1,1,0,0,1,1.9961-.124c.09814,1.57471.23877,3.19385.41846,4.813a1.00087,1.00087,0,0,1-.88379,1.10449A1.07813,1.07813,0,0,1,138.375,246.59912Zm-.59717-9.73779a1,1,0,0,1-1-.99072l-.00342-.79688c0-1.39209.0337-2.78467.10108-4.13916a1,1,0,1,1,1.99756.09863c-.06543,1.32178-.09864,2.68116-.09864,4.04053l.00342.77832a1.0004,1.0004,0,0,1-.99072,1.00928Zm.49121-9.73291a1.01127,1.01127,0,0,1-.11474-.00635,1,1,0,0,1-.88037-1.10693c.18847-1.65332.43359-3.29785.728-4.88721a1.00012,1.00012,0,1,1,1.9668.36426c-.28613,1.54443-.52441,3.14209-.70752,4.74951A1,1,0,0,1,138.269,227.12842Zm1.78272-9.57031a1.0129,1.0129,0,0,1-.25635-.0337,1.00024,1.00024,0,0,1-.71094-1.22265c.42383-1.60254.91358-3.19434,1.45606-4.73194a.99979.99979,0,0,1,1.88574.665c-.52441,1.48731-.998,3.02735-1.4082,4.57862A1.00075,1.00075,0,0,1,140.05176,217.55811Zm3.24267-9.17627a1.00095,1.00095,0,0,1-.91113-1.41163c.67969-1.50634,1.43164-2.9956,2.23438-4.42675a.99994.99994,0,1,1,1.74414.97851c-.77442,1.38037-1.49952,2.81739-2.15528,4.27051A1.00061,1.00061,0,0,1,143.29443,208.38184Zm4.76221-8.48877a.99994.99994,0,0,1-.82471-1.56446c.92676-1.35547,1.92823-2.69091,2.977-3.96875a.99988.99988,0,0,1,1.5459,1.26856c-1.01172,1.23291-1.978,2.52148-2.87158,3.8291A.99939.99939,0,0,1,148.05664,199.89307Zm6.17676-7.53174a1,1,0,0,1-.71631-1.69776c1.13818-1.168,2.3501-2.314,3.602-3.40625a1.00016,1.00016,0,0,1,1.31445,1.50782c-1.21142,1.05615-2.3833,2.16455-3.48388,3.29394A.99678.99678,0,0,1,154.2334,192.36133Zm7.34228-6.41162a1,1,0,0,1-.59863-1.80176c1.30078-.96924,2.67188-1.91553,4.07422-2.8125a.99975.99975,0,1,1,1.07715,1.68457c-1.36231.87158-2.69336,1.79053-3.95606,2.73144A.9959.9959,0,0,1,161.57568,185.94971Zm8.21289-5.26172a.99995.99995,0,0,1-.48291-1.876c1.417-.77978,2.89893-1.53515,4.40479-2.24609a.99993.99993,0,1,1,.85351,1.80859c-1.46826.69336-2.91308,1.42969-4.29443,2.18945A.9903.9903,0,0,1,169.78857,180.688Zm8.82276-4.17529a1.00023,1.00023,0,0,1-.37549-1.92725c1.5-.60742,3.05566-1.189,4.62451-1.729a.99984.99984,0,1,1,.65137,1.89062c-1.53565.52881-3.05811,1.09814-4.52588,1.69189A.99329.99329,0,0,1,178.61133,176.5127Zm9.23242-3.18555a1.00028,1.00028,0,0,1-.27783-1.96094c1.56689-.45361,3.17138-.87793,4.76953-1.26074a1.00015,1.00015,0,1,1,.46582,1.94531c-1.56787.37549-3.14209.79151-4.67871,1.23633A1.005,1.005,0,0,1,187.84375,173.32715Zm9.501-2.27735a.9999.9999,0,0,1-.187-1.98193c1.62745-.31152,3.26514-.58642,4.86768-.81641a.9999.9999,0,0,1,.28418,1.9795c-1.57227.22607-3.17871.49511-4.77588.80078A1.00181,1.00181,0,0,1,197.34473,171.0498Z"/><path class="cls-1" d="M141.499,263.5a.99965.99965,0,0,1-.96826-.75488q-.312-1.23341-.59619-2.44727a.99987.99987,0,1,1,1.94727-.45508q.27978,1.19532.5874,2.41211a1,1,0,0,1-.72412,1.21485A1.01386,1.01386,0,0,1,141.499,263.5Z"/><path class="cls-1" d="M350.499,398.5a.99992.99992,0,0,1-.84765-1.5293q1.12353-1.79736,2.13867-3.541a1.00043,1.00043,0,0,1,1.72851,1.00781q-1.03125,1.76954-2.16992,3.5918A1.0019,1.0019,0,0,1,350.499,398.5Zm4.583-7.93457a1.00037,1.00037,0,0,1-.88281-1.4668c.78613-1.48925,1.52832-2.97949,2.207-4.43164a1.00046,1.00046,0,0,1,1.8125.84766c-.69238,1.48047-1.4502,3.001-2.252,4.51758A.99742.99742,0,0,1,355.082,390.56543Zm4.22168-9.05957a.99941.99941,0,0,1-.92871-1.37207c.627-1.56348,1.19336-3.123,1.68359-4.63477a1,1,0,0,1,1.90235.61719c-.50391,1.55371-1.08594,3.15625-1.72852,4.76172A1.00113,1.00113,0,0,1,359.30371,381.50586Zm3.06543-9.50781a.99991.99991,0,0,1-.97363-1.23243c.38867-1.627.69824-3.24707.9209-4.8164a1.00017,1.00017,0,1,1,1.98047.28125c-.23145,1.63086-.55274,3.3125-.95606,5A.99986.99986,0,0,1,362.36914,371.99805Zm1.37012-9.88672H363.709a1.00113,1.00113,0,0,1-.9707-1.0293q.01758-.59179.01758-1.17383c.001-1.24218-.05957-2.48242-.17969-3.68652a1.00009,1.00009,0,0,1,1.99024-.19922c.12695,1.27051.19043,2.57813.18945,3.88672q0,.60938-.01758,1.23144A1.001,1.001,0,0,1,363.73926,362.11133Zm-1.01172-9.89551a1.0004,1.0004,0,0,1-.96973-.75977,31.89865,31.89865,0,0,0-1.51172-4.585.99985.99985,0,0,1,1.84571-.76953,33.90333,33.90333,0,0,1,1.60742,4.874.99991.99991,0,0,1-.73047,1.21093A1.01868,1.01868,0,0,1,362.72754,352.21582Zm-3.82227-9.16894a.99945.99945,0,0,1-.85547-.48047,33.95916,33.95916,0,0,0-2.81347-3.94336,1.0003,1.0003,0,1,1,1.543-1.27344,36.06484,36.06484,0,0,1,2.97949,4.17773,1,1,0,0,1-.85352,1.51954Zm-6.3164-7.69532a.998.998,0,0,1-.6836-.27051,44.91849,44.91849,0,0,0-3.748-3.13574.99961.99961,0,1,1,1.19922-1.59961,46.66646,46.66646,0,0,1,3.916,3.27637,1,1,0,0,1-.68359,1.72949Zm-7.97461-6.00683a.99448.99448,0,0,1-.52051-.14649c-1.35547-.82812-2.80371-1.63183-4.30469-2.38965a1.00012,1.00012,0,1,1,.90235-1.78515c1.54785.78222,3.04394,1.6123,4.44531,2.46777a1.00006,1.00006,0,0,1-.52246,1.85352Zm-8.92285-4.52246a.98109.98109,0,0,1-.38672-.07813c-1.48828-.624-3.042-1.21973-4.61817-1.76953a1,1,0,1,1,.65821-1.88867c1.61523.56347,3.208,1.17383,4.73339,1.81445a.9999.9999,0,0,1-.38671,1.92188Zm-9.44922-3.30957a1.00624,1.00624,0,0,1-.27735-.03907c-1.57812-.4541-3.19238-.875-4.7998-1.25a.99986.99986,0,1,1,.45508-1.94726c1.63965.38281,3.28711.81152,4.89746,1.27539a1,1,0,0,1-.27539,1.96094Zm-9.75977-2.27832a1.00173,1.00173,0,0,1-.17773-.01563c-2.99512-.53809-4.88086-.72168-4.90039-.72363a1.00014,1.00014,0,0,1-.89942-1.09082.98326.98326,0,0,1,1.08985-.89942c.08007.00684,1.97949.19141,5.06347.74512a1.00006,1.00006,0,0,1-.17578,1.98438Z"/><path class="cls-1" d="M186.50049,413.5a1.00068,1.00068,0,0,1-.92578-.62109q-.55152-1.34619-1.063-2.66309a1.00007,1.00007,0,1,1,1.86426-.72461q.50536,1.30225,1.04931,2.62988a.99923.99923,0,0,1-.9248,1.37891Zm-2.78174-7.33691a.99955.99955,0,0,1-.94482-.67286c-.55957-1.61425-1.08252-3.22753-1.5542-4.79589a.99992.99992,0,1,1,1.915-.57618c.46386,1.542.97851,3.12891,1.5288,4.71778a1.00092,1.00092,0,0,1-.61718,1.27246A1.01149,1.01149,0,0,1,183.71875,406.16309Zm-2.87451-9.57618a.99962.99962,0,0,1-.96875-.75683c-.41748-1.66309-.78858-3.32129-1.10352-4.92871a1.00012,1.00012,0,0,1,1.96289-.38477c.30811,1.57324.67139,3.19727,1.08008,4.82715a1.00065,1.00065,0,0,1-.9707,1.24316Zm-1.9082-9.80957a1.0004,1.0004,0,0,1-.98975-.86718c-.228-1.70313-.39746-3.39942-.5044-5.042a1.00013,1.00013,0,1,1,1.9961-.1289c.10351,1.59668.26855,3.24707.49072,4.90527a.9999.9999,0,0,1-.8584,1.124A1.03885,1.03885,0,0,1,178.936,386.77734Zm-.6294-9.96972H178.293a1.00057,1.00057,0,0,1-.98682-1.01367c.023-1.72071.11963-3.42774.28711-5.07227a.9998.9998,0,1,1,1.98926.20312c-.16113,1.58594-.2544,3.2334-.27637,4.89649A1.00026,1.00026,0,0,1,178.30664,376.80762Zm1.02734-9.91407a.998.998,0,0,1-.981-1.19824,47.14024,47.14024,0,0,1,1.27734-4.93261.99988.99988,0,1,1,1.90527.60742,45.35948,45.35948,0,0,0-1.22265,4.72168A1.00025,1.00025,0,0,1,179.334,366.89355Zm3.03077-9.48437a1.00078,1.00078,0,0,1-.91114-1.41113,43.066,43.066,0,0,1,2.37354-4.52149.99977.99977,0,1,1,1.71191,1.03321,41.00088,41.00088,0,0,0-2.2622,4.31054A1.00016,1.00016,0,0,1,182.36475,357.40918Zm5.14648-8.52637a.99987.99987,0,0,1-.78809-1.61523,45.03927,45.03927,0,0,1,3.3667-3.83985.99959.99959,0,1,1,1.42676,1.40039,42.98315,42.98315,0,0,0-3.21631,3.66993A.99775.99775,0,0,1,187.51123,348.88281Zm6.98047-7.125a1,1,0,0,1-.63525-1.77246c1.28955-1.06055,2.667-2.082,4.09326-3.03808a1.00025,1.00025,0,0,1,1.11328,1.66211c-1.37256.91894-2.69678,1.90234-3.937,2.92089A.99318.99318,0,0,1,194.4917,341.75781Zm8.29248-5.57324a1,1,0,0,1-.48145-1.877c1.459-.79981,2.99122-1.56055,4.55372-2.26074a.99968.99968,0,1,1,.81835,1.82421c-1.51416.67969-2.99853,1.416-4.41113,2.19043A.989.989,0,0,1,202.78418,336.18457Zm9.12305-4.10254a1,1,0,0,1-.34034-1.94043c1.57959-.57129,3.20508-1.09668,4.83155-1.56152a1.00029,1.00029,0,0,1,.54883,1.92383c-1.582.45117-3.16309.96191-4.69971,1.51855A.99017.99017,0,0,1,211.90723,332.082Zm9.62988-2.751a1,1,0,0,1-.20557-1.97851,50.73469,50.73469,0,0,1,5.07178-.84766.99983.99983,0,0,1,.19385,1.99024c-.01856.002-1.89746.19043-4.85254.81445A1.00522,1.00522,0,0,1,221.53711,329.33105Z"/><path class="cls-2" d="M86.36185,256.81454a15.26151,15.26151,0,0,1-5.43722,3.07767l-4.61047,1.826c-2.44459.96817-5.10176,2.12668-6.24987,4.4921-1.309,2.69689-.116,5.99522,1.762,8.33181a12.5991,12.5991,0,0,0,2.874,2.66724,13.2956,13.2956,0,0,0,3.28272,1.51157,18.39082,18.39082,0,0,0,7.41024.765c2.96773-.30313,6.00074-1.32316,8.86128-.47663a27.07235,27.07235,0,0,1,3.5879,1.64454c2.84787,1.31984,6.31328,1.66385,9.07981.18107s4.4413-5.09387,3.14377-7.952c-.676-1.489-2.0248-2.61938-2.56663-4.1623-.63906-1.81981-.03755-3.85312-.41514-5.74455-.59793-2.99521-3.45525-4.99089-4.72545-7.76856-.60842-1.3305-.89217-2.89985-1.99945-3.85607a5.76542,5.76542,0,0,0-2.61375-1.07956,9.61261,9.61261,0,0,0-2.73685-.28935c-2.73222.2045-4.86316,2.35349-6.72288,4.36552"/><path class="cls-3" d="M118.48235,297.48463c5.7848.816,12.23805-.46186,19.20526-3.80619a54.4933,54.4933,0,0,0,9.09927-5.5027l-6.645-8.47034,3.32249,4.2352-3.31362-4.2421c-3.16585,2.44979-13.05112,8.4804-20.69732,6.99192-3.4715-.67671-6.22188-2.8804-8.40848-6.7371l-9.45577,5.36682c3.72191,6.565,9.16349,10.70466,15.736,11.97158Q117.89884,297.40227,118.48235,297.48463Z"/><path class="cls-3" d="M131.99974,289.96956s3.34371-5.32347,6.89969-7.07123c3.55575-1.74781,5.91051-.52539,5.91051-.52539l3.82412-1.67877s1.17355,14.33955-9.04255,12.2424C138.785,292.77105,131.99974,289.96956,131.99974,289.96956Z"/><path class="cls-4" d="M147.762,274.04309l-3.32634,24.72964a2.97169,2.97169,0,0,1-3.41916,2.49249l-11.83209-1.81052a2.90276,2.90276,0,0,1-2.482-3.23208l3.27816-24.37065a2.96926,2.96926,0,0,1,3.32777-2.50512l11.88028,1.45163A2.9058,2.9058,0,0,1,147.762,274.04309Z"/><path class="cls-5" d="M145.89513,273.35862a.78522.78522,0,1,0-.72846.81714A.77612.77612,0,0,0,145.89513,273.35862Z"/><path class="cls-3" d="M151.57758,280.60509s1.19048-2.85514-1.49128-3.88891c-3.41689-1.3171-8.97826.23474-6.82507,1.09824a27.45042,27.45042,0,0,0,4.88958,1.21993s-7.59511-1.05253-7.28391.5582,6.85465,2.4293,6.85465,2.4293-7.495-.34543-6.69484,1.08239c.80023,1.42782,6.73692,2.20714,6.73692,2.20714s-7.30549-.72187-6.336.91535,4.82649,1.26478,6.49675,1.47042c1.57836.19432,2.22044-.73364,2.30734-2.23a4.2516,4.2516,0,0,0,.77911-2.43353c-.07546-.37988.32839-.69839.39679-.963A9.42049,9.42049,0,0,0,151.57758,280.60509Z"/><path class="cls-6" d="M111.1656,284.32547c2.20328-3.066,2.21963-3.692,2.21963-3.692s-3.33671-9.66118-20.9345-8.2913a34.61129,34.61129,0,0,0-6.48294,1.04872c-10.56292,2.46809-11.7951,8.98264-13.21185,21.79194a156.45342,156.45342,0,0,0-.97094,25.0178c34.35724-3.44469,41.0804,5.83468,41.0804,5.83468C112.96907,311.46551,112.278,293.38971,111.1656,284.32547Z"/><path class="cls-6" d="M107.98329,285.86877s5.68769-1.58675,6.70169-6.45043c0,0-4.70825-6.20021-17.11328-7.13365Z"/><path class="cls-6" d="M94.81617,272.19935s-13.86569-.21078-21.25129,2.58126l8.24181,5.75224Z"/><path class="cls-7" d="M82.58135,286.36415c-1.36951,1.1653-4.59765-.42479-7.21036-3.55164s-3.62049-6.60627-2.251-7.77161,4.59761.42483,7.21032,3.55165S83.95079,285.19885,82.58135,286.36415Z"/><path class="cls-3" d="M51.2968,321.71631a141.74329,141.74329,0,0,1,24.6692-31.464,41.137,41.137,0,0,1,4.88768-4.1805c1.25749-.895,1.2288-4.0797-.165-6.20021-1.30779-1.98973-4.28751-3.05679-5.016-2.67185-1.23908.65474-2.9528,2.197-5.64783,4.65746-9.36425,8.54868-16.61982,18.49053-25.8326,35.51152Z"/><path class="cls-3" d="M41.91,319.78981a23.79911,23.79911,0,0,1,3.547-3.84472s5.97021,2.22208,6.04354,2.87266c.16911,1.50063-.16184,4.56892-.02151,6.07391.06076.65248.11541,2.86845-.51991,3.04778-.55226.15589-1.42256-1.54359-1.73825-2.40766-2.111,3.88533-6.86415,8.67991-3.0094.24024l-.01345-.00584c-.466.82075-3.29754,6.04476-4.105,5.03706-.71271-.8894,1.25225-4.88819,2.0048-6.24572l-.03392-.02368c-.8801,1.31849-3.46155,5.11831-3.85771,4.03739-.49735-1.35671,1.96783-5.4244,1.96783-5.4244s-2.07947,3.72038-2.84667,2.236c-.5233-1.0124,1.39118-3.874,2.21286-5.13756A2.64836,2.64836,0,0,1,41.91,319.78981Z"/><path class="cls-3" d="M88.6405,272.34318c1.99494,2.193,6.66054,5.24392,9.09127,3.85932,2.07136-1.17676-.17567-3.94988-.17567-3.94988-1.19635-.1889-1.49946-.45492-1.63125-1.5128l-.15875-1.30041-.0783-.6446-.25489-2.05954-.22751-1.8496-.93308-7.58608-1.6066,7.834-.27343,1.33075a39.27658,39.27658,0,0,1-1.32178,4.61574C90.67291,271.9777,88.647,272.3418,88.6405,272.34318Z"/><path class="cls-8" d="M92.40823,266.387s1.32128,2.27266,3.27957,2.40781l-.25489-2.05954C94.20622,266.53861,92.40823,266.387,92.40823,266.387Z"/><path class="cls-2" d="M85.83815,257.74256a8.77665,8.77665,0,0,1,.32541,3.82626c-.28423,3.886,4.09237,4.589,4.9312,3.32521.10378-.15633-1.28619-6.38288-1.28619-6.38288l-1.45885-.53251Z"/><ellipse class="cls-3" cx="94.83403" cy="258.42798" rx="6.95162" ry="8.83451" transform="translate(-44.02362 20.73686) rotate(-10.14183)"/><path class="cls-2" d="M96.23637,251.22069c-.13735.305,1.80305,4.54658-5.99872,7.24892s-4.94206-8.30749.9233-9.742c8.46907-2.07136,10.86356,3.59451,10.45844,5.89257S96.23637,251.22069,96.23637,251.22069Z"/><path class="cls-2" d="M90.84408,256.86881s-2.5798,4.2295-.7362,7.63706c0,0-2.315-1.75216-2.51252-2.54249a32.39407,32.39407,0,0,1-.25468-3.77851Z"/><path class="cls-3" d="M89.18793,260.94191a1.67321,1.67321,0,0,0,2.44358-.31853,2.0035,2.0035,0,0,0-.88636-2.50027,1.67325,1.67325,0,0,0-2.44358.31853A2.00355,2.00355,0,0,0,89.18793,260.94191Z"/><path class="cls-9" d="M95.50913,258.377a.16126.16126,0,0,0,.08486-.11607.16313.16313,0,0,0-.12629-.19011,1.68224,1.68224,0,0,0-1.916.87142.16753.16753,0,0,0,.04953.225.16991.16991,0,0,0,.218-.05055,2.65479,2.65479,0,0,1,1.59081-.72538A.15289.15289,0,0,0,95.50913,258.377Z"/><path class="cls-9" d="M94.62516,260.38446c.06249.38367.33193.65745.60181.61146s.438-.3944.37553-.7781c-.06249-.38377-.3319-.65749-.60178-.61146S94.56273,260.00075,94.62516,260.38446Z"/><path class="cls-9" d="M101.2017,258.07989a.15641.15641,0,0,0,.12146-.07383.1663.1663,0,0,0-.0467-.22524,1.67156,1.67156,0,0,0-2.09536.05219.16732.16732,0,0,0-.03723.22723.17008.17008,0,0,0,.22043.03906,2.62909,2.62909,0,0,1,1.74042-.04506A.15405.15405,0,0,0,101.2017,258.07989Z"/><path class="cls-9" d="M99.64205,259.58675c-.08388.379.06435.73765.33116.80115s.55109-.1922.635-.57111-.06438-.73765-.33112-.80118C100.01025,258.95211,99.72594,259.20784,99.64205,259.58675Z"/><g class="cls-10"><path class="cls-5" d="M91.60848,258.78978c-.22178,2.18451.7952,4.37779,2.27149,4.89884s2.85285-.82751,3.07459-3.012-.79525-4.3778-2.27154-4.89881S91.83017,256.60528,91.60848,258.78978Z"/></g><g class="cls-10"><path class="cls-5" d="M98.65378,258.67949c.01643,2.15668,1.10634,4.24083,2.43427,4.6551,1.328.41424,2.39123-.99824,2.37477-3.15488s-1.10634-4.24083-2.4343-4.6551S98.63732,256.52282,98.65378,258.67949Z"/></g><path class="cls-8" d="M91.52206,260.346c.02167.11114.04619.22178.076.32815a4.8829,4.8829,0,0,0,1.4606,2.53951,2.702,2.702,0,0,0,.878.51125,2.08415,2.08415,0,0,0,1.13579.07723,2.25626,2.25626,0,0,0,.76082-.32426,3.48025,3.48025,0,0,0,1.32366-1.899,5.66677,5.66677,0,0,0,.234-1.1167,6.04,6.04,0,0,0,.00659-1.22659,4.92836,4.92836,0,0,0-.06569-.50858,4.69089,4.69089,0,0,0-2.0463-3.33861,2.52545,2.52545,0,0,0-.39174-.17621,2.0899,2.0899,0,0,0-1.89664.247,3.79812,3.79812,0,0,0-1.48454,2.51947c-.03193.16277-.05454.32684-.07308.49626-.01094.09913-.01846.20065-.02306.30166a6.10216,6.10216,0,0,0,.00887.8702A6.26785,6.26785,0,0,0,91.52206,260.346Zm4.80764,2.28966a2.548,2.548,0,0,1-.63765.61478,1.84347,1.84347,0,0,1-1.67224.21683,2.51041,2.51041,0,0,1-.89847-.554,4.79737,4.79737,0,0,1-1.35174-2.66486l-.00058-.003c-.02928-.16585-.05332-.336-.07147-.50729-.01642-.16234-.0271-.3258-.029-.49105a5.66112,5.66112,0,0,1,.03152-.74089,5.04229,5.04229,0,0,1,.1137-.66093,2.99365,2.99365,0,0,1,.09528-.35079.06477.06477,0,0,1,.00813-.02038l.011-.03663a4.04991,4.04991,0,0,1,.25419-.62392,2.89369,2.89369,0,0,1,.956-1.12685,1.85,1.85,0,0,1,1.67231-.2168,1.944,1.944,0,0,1,.29435.12735,4.35,4.35,0,0,1,1.97511,3.20636,5.08562,5.08562,0,0,1,.06393.51507,6.0714,6.0714,0,0,1-.01368,1.11241,5.09447,5.09447,0,0,1-.22346,1.06147,3.87146,3.87146,0,0,1-.56731,1.13177Z"/><path class="cls-8" d="M98.77792,259.91613c.02287.11725.048.23086.07608.34389.02811.113.062.22491.09522.33371.02047.074.04442.15037.07012.22011.00178.009.007.02044.00878.02946.02105.06133.04149.11969.06542.18041l.00466.00844a6.67107,6.67107,0,0,1-.32075-1.75663.80472.80472,0,0,0-.095-.03686c.01062.11662.02349.22959.0399.345C98.73816,259.69611,98.75689,259.80793,98.77792,259.91613Zm0,0c.02287.11725.048.23086.07608.34389.02811.113.062.22491.09522.33371.02047.074.04442.15037.07012.22011.00178.009.007.02044.00878.02946.02105.06133.04149.11969.06542.18041l.00466.00844a6.67107,6.67107,0,0,1-.32075-1.75663.80472.80472,0,0,0-.095-.03686c.01062.11662.02349.22959.0399.345C98.73816,259.69611,98.75689,259.80793,98.77792,259.91613Zm0,0c.02287.11725.048.23086.07608.34389.02811.113.062.22491.09522.33371.02047.074.04442.15037.07012.22011.00178.009.007.02044.00878.02946.02105.06133.04149.11969.06542.18041l.00466.00844a6.67107,6.67107,0,0,1-.32075-1.75663.80472.80472,0,0,0-.095-.03686c.01062.11662.02349.22959.0399.345C98.73816,259.69611,98.75689,259.80793,98.77792,259.91613Zm0,0c.02287.11725.048.23086.07608.34389.02811.113.062.22491.09522.33371.02047.074.04442.15037.07012.22011.00178.009.007.02044.00878.02946.02105.06133.04149.11969.06542.18041l.00466.00844a6.67107,6.67107,0,0,1-.32075-1.75663.80472.80472,0,0,0-.095-.03686c.01062.11662.02349.22959.0399.345C98.73816,259.69611,98.75689,259.80793,98.77792,259.91613Zm0,0c.02287.11725.048.23086.07608.34389.02811.113.062.22491.09522.33371.02047.074.04442.15037.07012.22011.00178.009.007.02044.00878.02946.02105.06133.04149.11969.06542.18041l.00466.00844a6.67107,6.67107,0,0,1-.32075-1.75663.80472.80472,0,0,0-.095-.03686c.01062.11662.02349.22959.0399.345C98.73816,259.69611,98.75689,259.80793,98.77792,259.91613Zm0,0c.02287.11725.048.23086.07608.34389.02811.113.062.22491.09522.33371.02047.074.04442.15037.07012.22011.00178.009.007.02044.00878.02946.02105.06133.04149.11969.06542.18041l.00466.00844a6.67107,6.67107,0,0,1-.32075-1.75663.80472.80472,0,0,0-.095-.03686c.01062.11662.02349.22959.0399.345C98.73816,259.69611,98.75689,259.80793,98.77792,259.91613Zm0,0c.02287.11725.048.23086.07608.34389.02811.113.062.22491.09522.33371.02047.074.04442.15037.07012.22011.00178.009.007.02044.00878.02946.02105.06133.04149.11969.06542.18041l.00466.00844a6.67107,6.67107,0,0,1-.32075-1.75663.80472.80472,0,0,0-.095-.03686c.01062.11662.02349.22959.0399.345C98.73816,259.69611,98.75689,259.80793,98.77792,259.91613Zm0,0c.02287.11725.048.23086.07608.34389.02811.113.062.22491.09522.33371.02047.074.04442.15037.07012.22011.00178.009.007.02044.00878.02946.02105.06133.04149.11969.06542.18041l.00466.00844a6.67107,6.67107,0,0,1-.32075-1.75663.80472.80472,0,0,0-.095-.03686c.01062.11662.02349.22959.0399.345C98.73816,259.69611,98.75689,259.80793,98.77792,259.91613Zm-.14068.36632a5.82843,5.82843,0,0,0,.78777,2.03939l.00285-.0006.00061.003a2.761,2.761,0,0,0,1.33774,1.16117c.03261.01208.06465.02116.09675.03027l.00989.00419a1.61737,1.61737,0,0,0,.78555.03634,1.71885,1.71885,0,0,0,.63151-.27284,4.11558,4.11558,0,0,0,1.4392-3.11027c.18175-2.30319-.82528-4.58213-2.23763-5.08421-.02916-.00969-.06184-.02177-.09039-.02845l-.00287.00064a1.67739,1.67739,0,0,0-.35908-.07041,1.58621,1.58621,0,0,0-.4947.04173,1.83042,1.83042,0,0,0-.57961.2591,4.113,4.113,0,0,0-1.43632,3.10967c-.00631.092-.01269.18394-.0161.27526-.00625.17005-.00614.34193.00274.512A6.58542,6.58542,0,0,0,98.63724,260.28245Zm.461.7497a6.67107,6.67107,0,0,1-.32075-1.75663c-.00768-.17971-.0096-.36061-.00508-.53972.004-.104.01086-.20848.01783-.31308a5.29772,5.29772,0,0,1,.42807-1.769,2.73137,2.73137,0,0,1,.854-1.10593.29129.29129,0,0,1,.03959-.03,1.49082,1.49082,0,0,1,.53944-.23218,1.31573,1.31573,0,0,1,.50173-.00568,1.48935,1.48935,0,0,1,.25177.06424c1.30806.464,2.23342,2.619,2.06265,4.80737l-.00348.02883.00116.006-.00055.0126-.00114.00963a3.81454,3.81454,0,0,1-1.31767,2.84791,1.38081,1.38081,0,0,1-1.15483.21416,1.01861,1.01861,0,0,1-.13813-.0405.76794.76794,0,0,1-.11544-.04834.0893.0893,0,0,1-.03323-.01506l-.00346-.00244-.007-.00476a2.31015,2.31015,0,0,1-.83624-.68554,4.55671,4.55671,0,0,1-.733-1.36915A.69344.69344,0,0,0,99.0982,261.03215Zm-.32028-1.116c.02287.11725.048.23086.07608.34389.02811.113.062.22491.09522.33371.02047.074.04442.15037.07012.22011.00178.009.007.02044.00878.02946.02105.06133.04149.11969.06542.18041l.00466.00844a6.67107,6.67107,0,0,1-.32075-1.75663.80472.80472,0,0,0-.095-.03686c.01062.11662.02349.22959.0399.345C98.73816,259.69611,98.75689,259.80793,98.77792,259.91613Zm0,0c.02287.11725.048.23086.07608.34389.02811.113.062.22491.09522.33371.02047.074.04442.15037.07012.22011.00178.009.007.02044.00878.02946.02105.06133.04149.11969.06542.18041l.00466.00844a6.67107,6.67107,0,0,1-.32075-1.75663.80472.80472,0,0,0-.095-.03686c.01062.11662.02349.22959.0399.345C98.73816,259.69611,98.75689,259.80793,98.77792,259.91613Zm0,0c.02287.11725.048.23086.07608.34389.02811.113.062.22491.09522.33371.02047.074.04442.15037.07012.22011.00178.009.007.02044.00878.02946.02105.06133.04149.11969.06542.18041l.00466.00844a6.67107,6.67107,0,0,1-.32075-1.75663.80472.80472,0,0,0-.095-.03686c.01062.11662.02349.22959.0399.345C98.73816,259.69611,98.75689,259.80793,98.77792,259.91613Zm0,0c.02287.11725.048.23086.07608.34389.02811.113.062.22491.09522.33371.02047.074.04442.15037.07012.22011.00178.009.007.02044.00878.02946.02105.06133.04149.11969.06542.18041l.00466.00844a6.67107,6.67107,0,0,1-.32075-1.75663.80472.80472,0,0,0-.095-.03686c.01062.11662.02349.22959.0399.345C98.73816,259.69611,98.75689,259.80793,98.77792,259.91613Zm0,0c.02287.11725.048.23086.07608.34389.02811.113.062.22491.09522.33371.02047.074.04442.15037.07012.22011.00178.009.007.02044.00878.02946.02105.06133.04149.11969.06542.18041l.00466.00844a6.67107,6.67107,0,0,1-.32075-1.75663.80472.80472,0,0,0-.095-.03686c.01062.11662.02349.22959.0399.345C98.73816,259.69611,98.75689,259.80793,98.77792,259.91613Zm0,0c.02287.11725.048.23086.07608.34389.02811.113.062.22491.09522.33371.02047.074.04442.15037.07012.22011.00178.009.007.02044.00878.02946.02105.06133.04149.11969.06542.18041l.00466.00844a6.67107,6.67107,0,0,1-.32075-1.75663.80472.80472,0,0,0-.095-.03686c.01062.11662.02349.22959.0399.345C98.73816,259.69611,98.75689,259.80793,98.77792,259.91613Zm0,0c.02287.11725.048.23086.07608.34389.02811.113.062.22491.09522.33371.02047.074.04442.15037.07012.22011.00178.009.007.02044.00878.02946.02105.06133.04149.11969.06542.18041l.00466.00844a6.67107,6.67107,0,0,1-.32075-1.75663.80472.80472,0,0,0-.095-.03686c.01062.11662.02349.22959.0399.345C98.73816,259.69611,98.75689,259.80793,98.77792,259.91613Z"/><path class="cls-8" d="M98.95276,259.305a.24463.24463,0,0,0,.17088-.13383.257.257,0,0,0-.109-.33967,2.5975,2.5975,0,0,0-2.2019.08425.25536.25536,0,0,0-.12285.33384.24254.24254,0,0,0,.32391.12766,2.134,2.134,0,0,1,1.78091-.0947A.23762.23762,0,0,0,98.95276,259.305Z"/><path class="cls-8" d="M97.72415,264.65821a4.47589,4.47589,0,0,1-1.71076-.33094.08248.08248,0,1,1,.06419-.152c.01976.00851,2.02662.83989,2.83616-.23349a.08265.08265,0,0,1,.13211.09934A1.66662,1.66662,0,0,1,97.72415,264.65821Z"/><path class="cls-7" d="M71.785,320.20065s1.22056,3.26657,14.31633,5.10278c6.42821.90128,29.09943,3.66828,26.76407.7319C105.86434,317.23262,76.26342,317.137,71.785,320.20065Z"/><path class="cls-4" d="M92.07659,405.78655s-.631,3.42876,1.20638,4.7869,7.55879,3.37213,4.89951,5.13928c-1.52582,1.014-7.3204-.9567-9.00376-1.28334-1.68368-.32669-3.43646.19888-4.42311-1.32192-1.08535-1.67312,1.739-8.404,1.739-8.404a6.17812,6.17812,0,0,0,2.5896,1.35527A5.057,5.057,0,0,0,92.07659,405.78655Z"/><path class="cls-4" d="M46.57109,380.649s-2.99394.68323-3.39156,3.16449c-.39758,2.4812.14459,9.33425-2.27995,7.21459-1.3912-1.21629-1.99583-8.12973-2.369-10.04129-.37332-1.91187-1.45767-3.561-.60806-5.20529.93478-1.80894,7.41094-1.47091,7.41094-1.47091a8.60328,8.60328,0,0,0-.11123,3.27665A6.7976,6.7976,0,0,0,46.57109,380.649Z"/><path class="cls-11" d="M108.89053,326.449c-1.31113,6.10977-2.35839,19.06388-3.91233,28.8633-2.97656,18.77066-6.48761,37.68622-8.21011,46.75469a6.85208,6.85208,0,0,1-6.27092,5.753l-1.64767.07212a5.79286,5.79286,0,0,1-5.75811-6.42291L87.30213,340.128,89.18807,325.448S109.51882,323.52125,108.89053,326.449Z"/><path class="cls-11" d="M107.92263,325.494s-15.31171,18.95176-21.9811,35.96876c-1.56586,3.99538-17.37423.50007-17.34538-3.68234.07052-10.23341,6.71616-35.689,6.71616-35.689.18447-.94072,2.39659-1.51121,4.407-1.59415C97.235,319.77473,106.34344,324.81388,107.92263,325.494Z"/><path class="cls-11" d="M42.77875,376.35087s-.78107-3.85207,2.16641-5.408c2.94749-1.55588,23.60837-14.08774,24.13386-19.06112.425-4.022,20.8374,2.94376,16.86251,9.581-8.7607,14.62888-38.77748,21.06238-40.71412,19.99081C43.2907,380.382,42.77875,376.35087,42.77875,376.35087Z"/><path class="cls-8" d="M86.15,361.50835l-.41722-.09089,4.69039-21.48287a17.40482,17.40482,0,0,1,6.69754-9.84392l.24085.35266a16.97136,16.97136,0,0,0-6.524,9.59346Z"/><path class="cls-12" d="M102.69852,181.23853l-.00012,0A15.61273,15.61273,0,0,1,81.82961,174.027h0a15.61276,15.61276,0,0,1,7.21153-20.86887l.00008,0a15.6128,15.6128,0,0,1,20.86887,7.21164h0A15.61279,15.61279,0,0,1,102.69852,181.23853Z"/><path class="cls-5" d="M92.01139,170.688a.36663.36663,0,0,0,.36336-.4723c-.038-.18932-.13949-.66458-.17876-.86405-.05249-.272-.11831-.34361-.39736-.46642a3.07417,3.07417,0,0,1-1.54567-1.57172,5.04424,5.04424,0,0,1,2.48469-6.88087c2.572-1.25094,4.74959-.36652,5.77062,1.73284,1.34312,2.76151,1.25447,5.68654-.56,6.569a1.64852,1.64852,0,0,1-2.40911-1.10907,22.77049,22.77049,0,0,0-.80738-3.81059,1.4263,1.4263,0,0,0-1.99118-.8098c-1.02464.49831-1.33205,1.95832-.64168,3.3778a4.094,4.094,0,0,0,1.04316,1.36694s1.112,4.95164,1.30631,5.8185a11.936,11.936,0,0,0,1.74152,3.6537.14173.14173,0,0,0,.25446-.05545,11.35712,11.35712,0,0,0,.2042-3.97564c-.08938-.48321-.606-2.96033-.606-2.96033a3.0519,3.0519,0,0,0,2.91975.0556c3.07954-1.49775,3.80315-5.32038,1.9757-9.07779-1.38185-2.8411-5.07468-4.31687-8.7323-2.53795-4.55084,2.21336-5.25866,6.59209-3.93544,9.31273C89.07165,169.63089,90.40828,170.79306,92.01139,170.688Z"/><path class="cls-13" d="M140.58061,355.949l-.00017-.00007a16.92682,16.92682,0,0,1-9.0745-22.15152h0a16.92693,16.92693,0,0,1,22.15143-9.07469l.00015.00011a16.9269,16.9269,0,0,1,9.07462,22.15151h0A16.92688,16.92688,0,0,1,140.58061,355.949Z"/><path class="cls-5" d="M150.05818,333.31761c2.28583.95731,2.55294,1.07948,3.4382,1.49861a5.138,5.138,0,0,1,1.46633.96065,3.07393,3.07393,0,0,1,.94425,2.30482,5.14431,5.14431,0,0,1-.371,1.71332c-.337.91977-.44143,1.19428-1.39873,3.48012-.95719,2.28575-1.07954,2.55278-1.49856,3.4383a5.14186,5.14186,0,0,1-.96049,1.4661,3.0732,3.0732,0,0,1-2.30491.9443,5.13614,5.13614,0,0,1-1.71336-.37079c-.91965-.33707-1.19394-.44159-3.47992-1.39894-2.28607-.95737-2.553-1.07946-3.43839-1.49834a5.13139,5.13139,0,0,1-1.46613-.96068,3.072,3.072,0,0,1-.94435-2.305,5.13687,5.13687,0,0,1,.37088-1.713c.33692-.91992.44155-1.19436,1.3988-3.48012.95724-2.28583,1.07941-2.55293,1.49848-3.43836a5.14058,5.14058,0,0,1,.96061-1.46641,3.07293,3.07293,0,0,1,2.305-.94405,5.13481,5.13481,0,0,1,1.71316.37082c.91974.33678,1.19428.44143,3.48011,1.39867m.64592-1.54234c-2.325-.97368-2.62068-1.08575-3.55125-1.42657a6.81558,6.81558,0,0,0-2.24461-.47228,4.74416,4.74416,0,0,0-3.552,1.45538,6.80128,6.80128,0,0,0-1.26809,1.91115c-.42418.8957-.55606,1.183-1.52973,3.50808-.97364,2.32492-1.08589,2.62056-1.42655,3.55114a6.804,6.804,0,0,0-.47224,2.24464,4.74484,4.74484,0,0,0,1.455,3.55212,6.8156,6.8156,0,0,0,1.91134,1.26807c.89575.4241,1.18314.556,3.50807,1.52966,2.32488.97362,2.62045,1.08581,3.551,1.4266a6.8177,6.8177,0,0,0,2.24462.47234,4.74606,4.74606,0,0,0,3.55229-1.45519,6.82039,6.82039,0,0,0,1.26816-1.91132c.42389-.89569.55572-1.18313,1.52939-3.5081s1.086-2.62057,1.42689-3.55113a6.81773,6.81773,0,0,0,.47217-2.24446,4.7453,4.7453,0,0,0-1.45527-3.55234,6.81652,6.81652,0,0,0-1.91128-1.26814c-.89578-.424-1.183-.55606-3.5079-1.52965"/><path class="cls-5" d="M148.96,335.94a4.76588,4.76588,0,1,0,2.555,6.237,4.76607,4.76607,0,0,0-2.555-6.237m-3.036,7.24955a3.09365,3.09365,0,1,1,4.04836-1.65861,3.09374,3.09374,0,0,1-4.04836,1.65861"/><path class="cls-5" d="M154.62972,338.11015a1.11379,1.11379,0,1,1-.597-1.45749,1.11386,1.11386,0,0,1,.597,1.45749"/><path class="cls-14" d="M415.44871,94.03221h0a15.55134,15.55134,0,0,1-15.55128-15.55146h0a15.55124,15.55124,0,0,1,15.55128-15.55129h0A15.55131,15.55131,0,0,1,431,78.48075h0A15.5514,15.5514,0,0,1,415.44871,94.03221Z"/><path class="cls-5" d="M413.079,87.88087h3.78564v-9.48h2.64115l.28153-3.174h-2.92268V73.41906c0-.74824.15032-1.04408.874-1.04408h2.04867V69.0808h-2.62123c-2.817,0-4.08709,1.2408-4.08709,3.61539v2.5307H411.11v3.21372h1.969Z"/><path class="cls-15" d="M284.68626,442.90765h0a17.21617,17.21617,0,0,1-19.21073-14.9581h0a17.21613,17.21613,0,0,1,14.95794-19.21072h0a17.21615,17.21615,0,0,1,19.21079,14.95793h0A17.21619,17.21619,0,0,1,284.68626,442.90765Z"/><path class="cls-5" d="M274.941,432.35349a10.7045,10.7045,0,0,0,15.16766-11.46642,7.63691,7.63691,0,0,0,1.62294-2.16543,7.5225,7.5225,0,0,1-2.07193.85488,3.76963,3.76963,0,0,0,1.38471-2.27063,7.54153,7.54153,0,0,1-2.25843,1.20187,3.76652,3.76652,0,0,0-5.94086,4.19894,10.68171,10.68171,0,0,1-8.18391-2.94461,3.76822,3.76822,0,0,0,1.77664,4.84311,3.75033,3.75033,0,0,1-1.75068-.25682,3.7686,3.7686,0,0,0,3.45755,3.33713,3.76761,3.76761,0,0,1-1.67811.27341,3.76583,3.76583,0,0,0,3.81148,2.15983A7.56436,7.56436,0,0,1,274.941,432.35349Z"/><path class="cls-16" d="M312.91,362.11034l-103.77824-.06156a22.6052,22.6052,0,0,1-22.59275-22.61l.05088-260.17409a22.6064,22.6064,0,0,1,22.61924-22.602l103.77862.061a22.6062,22.6062,0,0,1,22.59237,22.61058l-.051,260.17462A22.60547,22.60547,0,0,1,312.91,362.11034Z"/><path class="cls-5" d="M312.8776,65.926l-20.12081-.01166a4.998,4.998,0,0,0-4.88646,5.10465l-.0015,3.64974a4.9973,4.9973,0,0,1-4.88625,5.10481l-39.21991-.02311a5.003,5.003,0,0,1-4.88489-5.11052l.001-3.64974a5.00328,5.00328,0,0,0-4.88533-5.11038l-7.07641-.00444-17.61054-.01016a15.83231,15.83231,0,0,0-15.84111,15.82914l-.04967,253.94854A15.83215,15.83215,0,0,0,209.23829,351.479l103.57112.06036a15.83227,15.83227,0,0,0,15.84111-15.82869L328.70019,81.761A15.83222,15.83222,0,0,0,312.8776,65.926Z"/><path class="cls-16" d="M314.39264,86.55674c.00053.06811-2.616.14495-5.84343.1716-3.22857.02671-5.8454-.00685-5.846-.075-.0006-.068,2.6154-.14488,5.844-.1716C311.77461,86.45513,314.392,86.4887,314.39264,86.55674Z"/><path class="cls-16" d="M305.33422,87.12315c-3.00318,0-3.00391-.097-3.00759-.46562,0-.473,0-.50089,6.2173-.552,6.21878-.05108,6.22025-.02352,6.22539.44725v.004c0,.46819,0,.49612-6.2173.54794C307.21139,87.1158,306.15888,87.12315,305.33422,87.12315Z"/><path class="cls-16" d="M314.41733,89.54762c.00053.068-2.61592.14488-5.84344.17153-3.22857.02672-5.84539-.00685-5.84592-.075-.0006-.068,2.61532-.14488,5.84389-.17152C311.79937,89.446,314.41673,89.47951,314.41733,89.54762Z"/><path class="cls-16" d="M305.34525,90.1142c-2.98848,0-2.99-.09738-2.99363-.466l-.00147-.15619.11025-.11392c.12274-.125.22858-.233,6.10852-.28187,6.21878-.05071,6.22025-.02242,6.22466.44724l.00147.15619-.11025.11392c-.11833.12017-.22932.23373-6.10779.28187C307.2283,90.10649,306.17211,90.1142,305.34525,90.1142Z"/><path class="cls-16" d="M314.44209,92.53836c.00053.06811-2.616.145-5.84344.1716-3.22864.02672-5.84547-.00685-5.846-.075-.00061-.068,2.61539-.14481,5.84389-.1716C311.82406,92.43675,314.44149,92.4704,314.44209,92.53836Z"/><path class="cls-16" d="M306.07583,93.09828c-3.392,0-3.48313-.09114-3.58677-.19368l-.111-.11024-.00147-.31311.10878-.11245c.12274-.12495.22858-.233,6.10852-.28187,6.21731-.05035,6.22025-.02242,6.22466.44724l.00147.15618-.11025.11393c-.11833.12017-.22932.23373-6.10853.28187C307.60241,93.0946,306.76966,93.09828,306.07583,93.09828Z"/><path class="cls-16" d="M216.883,94.82147l-.38109.00367-.04484-5.687a1.67016,1.67016,0,0,0-.26937-.86508,2.2845,2.2845,0,0,0-.36456-.41454c-.04116-.03895-.08158-.07754-.13009-.12825l-4.36476-4.281a2.03549,2.03549,0,0,0-.98673-.64532,1.7174,1.7174,0,0,0-1.492.30539,7.35677,7.35677,0,0,0-.53508.52037c-.08121.08526-.16243.17015-.25467.26092l-1.41707,1.452c-.31715.33626-.63062.65231-.936.96027a22.86306,22.86306,0,0,0-1.62911,1.76288,2.01669,2.01669,0,0,0-.26864,1.02421l.12973,5.90089c.00441.12752.00771.23373.01323.32266l-.05476.05476.09187.21976a.28312.28312,0,0,0,.16721.19772l.025.011.0261.01066.22821.08636.05035-.05035c.03895.00147.08011.00258.12348.00368l3.58015.03344.007.44467.434-.44136.48179.004-.00184-.46893.45459-.48546-.45459.01066-.00073-1.7989c.00294-.14663.0011-.30134-.00074-.4579-.00331-.265-.00735-.53654.01176-.74859a.59319.59319,0,0,1,.48877-.46378l.29473-.00367c.36713-.00515.76881-.01176,1.09037.00478a.58159.58159,0,0,1,.47627.59167l.0147,2.8084-.38808.004.38992.38329.00331.65341.65708-.00477.39285.38587-.00441-.38845,2.91756-.01874.0033.38036.37669-.38256.67582-.00368-.00477-.67913Zm-4.35851.04446-.032-2.79113a1.596,1.596,0,0,0-1.39061-1.60155c-.43585-.01985-.80922-.01066-1.19546-.00037l-.35941.00919a1.58614,1.58614,0,0,0-1.39539,1.3127,7.77761,7.77761,0,0,0-.01286.91175c.004.14333.00809.28481.00662.43916l.0294,1.82095-3.4394.0893c.00037-.03638.0011-.0746.00184-.1154l.0327-5.07916c.00551-.12863.00294-.26019,0-.39249a1.67262,1.67262,0,0,1,.111-.86141c.42115-.49833.94814-1.02091,1.50636-1.574.3234-.32082.65635-.65083.98012-.98746l1.4189-1.4314c.08857-.086.179-.179.26974-.272.151-.15545.30319-.31274.434-.42445a.67325.67325,0,0,1,.40718-.1312.77549.77549,0,0,1,.20029.02646,1.166,1.166,0,0,1,.48362.36456l4.37909,4.32028c.32744.29694.43291.45754.434.66223l.05,5.67562Z"/><path class="cls-16" d="M226.19677,313.08457l-1.664-.74211a4.5578,4.5578,0,1,1,2.43016-4.00315,4.60434,4.60434,0,0,1-1.15039,3.0816Zm-3.88969-9.01307a4.305,4.305,0,1,0,.069,8.60976,4.44324,4.44324,0,0,0,2.07308-.65337l.069-.039,1.22648.54776-.278-1.20561.056-.06115a4.29995,4.29995,0,0,0-3.21562-7.19839Z"/><path class="cls-16" d="M236.89388,312.37054l-1.90681-4.65459-3.57655-3.25878,8.6741-.06966Zm-4.67353-7.6033,3.04614,2.79577,1.62434,3.96431,2.72515-6.81963Z"/><path class="cls-12" d="M212.54725,305.42927a2.68287,2.68287,0,0,0-5.29077.17686,2.68278,2.68278,0,0,0-5.29272-.092,3.621,3.621,0,0,0,.65932,2.61056,10.75706,10.75706,0,0,0,1.89925,1.99267c.96632.85381,1.8593,1.65643,2.82563,2.51025.95219-.86922,1.76235-1.68549,2.71471-2.55471a10.74561,10.74561,0,0,0,1.86716-2.023A3.62175,3.62175,0,0,0,212.54725,305.42927Z"/><path class="cls-16" d="M257.11347,335.95147a2.16154,2.16154,0,1,1-2.15208-2.20288A2.17669,2.17669,0,0,1,257.11347,335.95147Z"/><path class="cls-16" d="M263.81054,335.98225a2.16147,2.16147,0,1,1-2.15192-2.203A2.17662,2.17662,0,0,1,263.81054,335.98225Z"/><path class="cls-16" d="M270.50724,336.013a2.16147,2.16147,0,1,1-2.152-2.203A2.17555,2.17555,0,0,1,270.50724,336.013Z"/><rect class="cls-17" x="201.6914" y="105.06138" width="119.66858" height="190.41604" transform="translate(523.05139 400.53881) rotate(-180)"/><path class="cls-3" d="M361.524,160.27376s1.21439-9.42433.66306-12.75589c-.5865-3.5438-6.50341-11.05448-6.50341-11.05448.08166-.32685,1.06211-1.14387,4.0851,0,3.02291,1.14377,4.08511,3.26809,6.94469,5.31064l14.68254-9.1089,4.8445,15.40713L373.76955,167.707Z"/><path class="cls-16" d="M234.09485,103.01107A31.56991,31.56991,0,0,0,229.001,124.9102c.60625,4.31424,2.09813,8.80089.61406,12.89685-1.27751,3.5257-4.66985,6.40626-4.48323,10.15162.21269,4.26913,5.02575,7.15562,5.45978,11.408a7.23808,7.23808,0,0,1-.28956,2.6034c-.036.12449-.06362.2128-.07982.26359-1.08342,3.39872-1.62516,5.09809-1.31051,5.83949.58774,1.385,3.89923,1.31742,9.78422.75263,3.10254-.29775,7.20422-.76094,12.04212-1.50526q-.5994-31.84179-1.19879-63.68356Z"/><path class="cls-3" d="M153.51875,176.36586l.30132-.00863-1.2156-4.05542-3.88234-15.49742a2.8448,2.8448,0,0,1,1.82345-3.37648l2.79452-.09475,9.5717-4.47692a2.98459,2.98459,0,0,1,4.03463,2.31521c.34939,2.84844,2.286,10.50073,4.3482,7.82017.04825-.06283.09985-.11452.14866-.17605,2.89754-3.98878,6.50648-6.14065,7.99149-6.0807a1.66616,1.66616,0,0,1,1.01385,2.86171,1.77347,1.77347,0,0,1-.54669.47319c-.09661.05216-.21094.146-.3134.21178a24.74235,24.74235,0,0,0-3.44487,3.78,13.10515,13.10515,0,0,0-2.10928,4.03416c-.51105,1.60751-.89089,3.01632-1.1769,4.21067l.74334,7.91075"/><path class="cls-1" d="M179.05726,106.16761s-11.1858-2.14325-27.25525-16.74208c-16.06917-14.59865-23.98641-34.36586-25.8983-34.21413-1.91207.15155-10.3825-3.49266-25.30233,31.54758-14.91965,35.04034-8.4283,42.89475-5.26611,42.74051,3.1624-.15488,24.47744-6.75165,37.9402-5.607,13.46276,1.14516,30.9104,7.64951,30.9104,7.64951Z"/><path class="cls-18" d="M203.207,124.35116l-3.58787,7.31784-1.60751,3.2782a9.414,9.414,0,0,1-12.14823,4.51524l-24.0613-7.62565,12.97713-32.07126,24.16413,12.01052A9.41521,9.41521,0,0,1,203.207,124.35116Z"/><path class="cls-18" d="M101.90431,87.35226c-7.93089,18.97719-10.98,35.77411-6.81013,37.51673,4.16947,1.74281,13.97911-12.22915,21.91027-31.20616,7.93051-18.977,10.97959-35.77374,6.81012-37.51636C119.64474,54.40385,109.83537,68.37507,101.90431,87.35226Z"/><path class="cls-18" d="M189.79733,136.28567l-7.172,15.09588-3.82684-.94713-24.22315,20.87284-7.31375-13.36893s14.474-6.72781,17.03588-12.02973c2.56159-5.30192-.60367-6.39818-.60367-6.39818l6.67426-8.0324Z"/><polygon class="cls-1" points="205.547 134.712 199.032 132.867 202.813 125.155 207.741 128.028 205.547 134.712"/><polygon class="cls-1" points="202.813 125.155 199.032 132.867 200.371 133.246 203.403 125.499 202.813 125.155"/><path class="cls-1" d="M119.03874,82.69605s-9.83145-5.71683-14.74731,7.48627c-4.91549,13.20329,5.31055,15.06136,5.31055,15.06136A87.00206,87.00206,0,0,0,119.03874,82.69605Z"/><path class="cls-19" d="M186.17778,211.67715s10.70324-12.57967,24.92149-28.55929c13.73876-15.44045,35.95424-12.41958,35.95424-12.41958l29.97342.53185s39.3657,2.73069,44.21408,29.98275l-17.72577,11.748L298.78441,235.25,290.85159,263.818c5.15556,13.56746,9.296,21.50791,15.08577,30.68287l-84.91151-.22514,7.26458-29.3738-1.66049-15.15573s-6.62426-8.48425-6.61052-17.35718a26.06252,26.06252,0,0,1,4.68388-14.3889l-19.071,14.96845Z"/><path class="cls-19" d="M176.963,173.04125l4.84412,42.99823,24.17657-24.09082s12.9388,26.90418,13.11864,27.99886c.12093.73573-13.56928,14.26113-23.74048,22.07369-5.5071,4.22988-12.9376,10.7667-19.79431,9.66793-11.43728-1.833-18.22763-9.38841-19.22172-20.92917l-4.38-57.057Z"/><path class="cls-19" d="M302.22791,179.34951l43.0088,22.75531,15.56192-42.51027,18.98443,9.02825-13.42963,54.11256c-2.66952,10.75612-14.06123,17.22214-24.45858,13.3862q-.52508-.19377-1.04393-.41816L294.25322,215.53Z"/><path class="cls-3" d="M237.03652,150.72443a20.75682,20.75682,0,0,1-1.84185-3.60016c-3.25491-11.137-1.94494-23.387-2.045-34.84524a4.61579,4.61579,0,0,1,3.265-4.453l21.12461-6.51121,17.76463,13.11544.42653,61.46451c.0542,7.81164-5.04959,12.635-12.86141,12.63507-7.646,0-15.1098-4.56366-15.28482-12.20791-.07366-3.13574-.26227-6.26746-.23216-9.40286.01713-1.78338.07594-3.56889-.01852-5.35115-.05678-1.07155.0682-4.264-1.20529-4.68255C242.62444,155.74007,239.091,153.89368,237.03652,150.72443Z"/><path class="cls-20" d="M242.3725,141.84365a1.29329,1.29329,0,0,1,2.21177-.40636,2.036,2.036,0,0,1,2.73309.12988,2.303,2.303,0,0,1,.20465,2.794,2.65612,2.65612,0,0,1-2.65312,1.06506,3.14541,3.14541,0,0,1-2.23869-1.8568,2.292,2.292,0,0,1,.14273-2.25929"/><path class="cls-16" d="M246.876,137.77067a9.28373,9.28373,0,0,0-2.2787-.41117c-.35815-.037-.69725-.10816-.75762-.35257a1.82331,1.82331,0,0,1,.23918-1.06194q.50517-1.30029,1.05947-2.72779c1.47121-3.88393,2.5362-7.07762,2.37925-7.13547s-1.47678,3.0432-2.948,6.92726q-.5311,1.43649-1.0149,2.74413a2.07321,2.07321,0,0,0-.18582,1.406.89935.89935,0,0,0,.589.52382,2.43261,2.43261,0,0,0,.60842.08453A9.12868,9.12868,0,0,0,246.876,137.77067Z"/><path class="cls-16" d="M248.4464,141.80511c-.18-.19411-1.404,1.075-3.35931.93167-1.95628-.13835-3.17438-1.58359-3.35507-1.41533-.09445.06269.06444.537.62144,1.10208a4.39074,4.39074,0,0,0,2.7317,1.25342,3.823,3.823,0,0,0,2.73526-.85957C248.37972,142.33267,248.5405,141.88133,248.4464,141.80511Z"/><path class="cls-16" d="M253.65122,122.13554c.20092.50595,1.808.13372,3.73952.25492,1.933.07563,3.52487.61082,3.74211.12612.09577-.23136-.21057-.69815-.87279-1.15185a5.66659,5.66659,0,0,0-2.83758-.91335,5.3792,5.3792,0,0,0-2.86227.623C253.88443,121.45985,253.563,121.89472,253.65122,122.13554Z"/><path class="cls-16" d="M235.39834,122.167c.40805.43431,2.0059-.01652,3.92781-.03759,1.92052-.077,3.54872.29177,3.92336-.16259.16416-.22077-.09206-.65582-.80329-1.06712a6.31532,6.31532,0,0,0-3.19292-.712,6.20463,6.20463,0,0,0-3.133.87336C235.44122,121.50753,235.21821,121.95493,235.39834,122.167Z"/><path class="cls-16" d="M254.1994,125.85853c.06849.04037.29093-.34086.8365-.724a3.79959,3.79959,0,0,1,2.436-.65388,5.56067,5.56067,0,0,1,2.441.87354c.58038.36127.91511.64014.96606.58771.043-.04158-.20871-.41157-.76858-.86658a4.84408,4.84408,0,0,0-2.60048-1.0764,3.6476,3.6476,0,0,0-2.6877.869C254.26946,125.37365,254.14994,125.84136,254.1994,125.85853Z"/><path class="cls-19" d="M237.983,155.447c-.01735-.036-.39737.14923-1.12029.35618a8.27788,8.27788,0,0,1-3.13177.27283,8.59414,8.59414,0,0,1-4.26217-1.74178,8.28975,8.28975,0,0,1-3.01891-4.6834,9.62341,9.62341,0,0,1,.37278-5.60556,7.36735,7.36735,0,0,1,2.83248-3.58658,7.05709,7.05709,0,0,1,2.93353-1.08726c.74408-.09448,1.16614-.0465,1.16939-.09039.00177-.01661-.10143-.04037-.30179-.07062a5.00367,5.00367,0,0,0-.88486-.02627,6.73127,6.73127,0,0,0-3.09779.985,7.56065,7.56065,0,0,0-3.06523,3.71279,9.87414,9.87414,0,0,0-.42846,5.88173,8.603,8.603,0,0,0,3.21917,4.925,8.7094,8.7094,0,0,0,4.50013,1.72759,7.74236,7.74236,0,0,0,3.22122-.434A3.25657,3.25657,0,0,0,237.983,155.447Z"/><g class="cls-21"><path class="cls-22" d="M255.73489,241.63544c-.25716.12305.35088,2.19224,2.59045,4.78622a19.193,19.193,0,0,0,4.59941,3.832,19.55794,19.55794,0,0,0,14.30595,2.404,19.19133,19.19133,0,0,0,5.59963-2.11837c2.96444-1.71952,4.215-3.476,4.01225-3.67632-.24555-.28555-1.85954.94954-4.76459,2.14222a20.99192,20.99192,0,0,1-22.54011-3.78749C257.18212,243.141,256.06025,241.44584,255.73489,241.63544Z"/></g><path class="cls-22" d="M302.23635,218.98619s-16.18768,37.79412-15.32667,42.745c.861,4.95094,12.20076,21.04109,12.20076,21.04109l-8.25894-18.95408A454.62544,454.62544,0,0,0,302.23635,218.98619Z"/><path class="cls-16" d="M178.45145,226.73732a30.42687,30.42687,0,0,0,3.57211-10.52124c-.13688-.03109-.77118,2.37339-1.75943,5.27C179.2849,224.38453,178.324,226.67867,178.45145,226.73732Z"/><path class="cls-16" d="M176.45215,224.1245a28.73211,28.73211,0,0,0,5.59284-8.64842,50.84433,50.84433,0,0,0-2.81169,4.31461A50.836,50.836,0,0,0,176.45215,224.1245Z"/><path class="cls-16" d="M235.60241,258.12119a8.56,8.56,0,0,0,1.17384.88746c.84829.587,1.9569,1.354,3.29343,2.27874,2.85549,1.96061,6.67157,4.58075,10.88957,7.47689,4.20445,2.91888,8.00725,5.559,10.85263,7.53435,1.33838.92207,2.44846,1.68684,3.29787,2.272a8.58646,8.58646,0,0,0,1.24558.78305,8.56171,8.56171,0,0,0-1.13561-.93562c-.74946-.5775-1.84581-1.39675-3.20925-2.39752-2.72668-2.00172-6.52837-4.72024-10.77663-7.654-4.24741-2.93187-8.13634-5.52306-10.97448-7.3634-1.419-.92031-2.57384-1.65521-3.37945-2.15141A8.58559,8.58559,0,0,0,235.60241,258.12119Z"/><path class="cls-16" d="M349.67687,211.93321a31.665,31.665,0,0,0-4.21215-9.95961c-.12277.06552.93265,2.24245,2.08932,4.98723C348.71731,209.70162,349.54435,211.97571,349.67687,211.93321Z"/><path class="cls-16" d="M346.61351,216.06119a8.4555,8.4555,0,0,0,.05373-2.10937c-.04111-1.30061-.16361-3.09575-.39923-5.06778-.23692-1.97258-.54187-3.7461-.80923-5.01952a8.46157,8.46157,0,0,0-.55031-2.0369,9.973,9.973,0,0,0,.21363,2.09546c.1804,1.28409.43041,3.05594.66613,5.01841.23432,1.9619.41,3.74257.538,5.03288A9.98875,9.98875,0,0,0,346.61351,216.06119Z"/><path class="cls-16" d="M258.9356,94.24293a12.72209,12.72209,0,0,0-11.23813-4.35209,17.2833,17.2833,0,0,0-10.77877,5.91505,27.254,27.254,0,0,0-5.63887,11.11591,9.86573,9.86573,0,0,0-.43571,3.68968,4.02082,4.02082,0,0,0,1.86642,3.0784,4.12831,4.12831,0,0,0,3.70991-.08936,12.20326,12.20326,0,0,0,3.03915-2.34462,5.77509,5.77509,0,0,0,11.17605.42447,8.31367,8.31367,0,0,0,15.82789-1.56964c.64432-3.23-.68283-6.55724-2.54507-9.27372s-4.25967-5.02917-6.16674-7.71437"/><path class="cls-23" d="M235.9275,109.77191c.0824.01151.26048-1.527.72236-3.96409a21.40612,21.40612,0,0,1,1.21922-4.15072,11.78312,11.78312,0,0,1,2.98078-4.26969,8.83514,8.83514,0,0,1,4.71-2.07374,16.99162,16.99162,0,0,1,4.31117.03991c2.45747.31858,3.96521.67939,3.98228.59346a4.516,4.516,0,0,0-1.03659-.3262c-.67615-.17353-1.65956-.41333-2.89938-.6058a16.13317,16.13317,0,0,0-4.41548-.14282,9.0928,9.0928,0,0,0-4.9696,2.15085,11.86793,11.86793,0,0,0-3.07422,4.46262,19.8764,19.8764,0,0,0-1.14443,4.261c-.20017,1.23695-.29409,2.24365-.35181,2.93911A4.615,4.615,0,0,0,235.9275,109.77191Z"/><path class="cls-23" d="M248.08788,112.49052a24.50353,24.50353,0,0,0-.2036-2.94059,18.58838,18.58838,0,0,1,.56441-6.9587,9.74839,9.74839,0,0,1,1.79506-3.34743,7.96584,7.96584,0,0,1,2.42025-1.93286,9.52748,9.52748,0,0,1,2.774-.80635,1.913,1.913,0,0,0-.80032-.05085,6.18007,6.18007,0,0,0-2.12162.5491,7.83657,7.83657,0,0,0-2.6092,1.94985,9.72917,9.72917,0,0,0-1.91876,3.4922,17.00526,17.00526,0,0,0-.444,7.13836c.11294.90833.23933,1.63645.33835,2.1373A2.51541,2.51541,0,0,0,248.08788,112.49052Z"/><path class="cls-3" d="M386.33084,147.016a1.9186,1.9186,0,0,0-2.68307-.68794c-1.56853.99038-3.2705,2.0458-4.74669,2.99655a5.00992,5.00992,0,0,0-1.70142,1.478,1.52292,1.52292,0,0,0,.28611,2.01072,2.45215,2.45215,0,0,0,2.25507-.05392c.229-.09141,3.92363-2.32077,5.97324-3.56124a1.62641,1.62641,0,0,0,.61676-2.18222Z"/><path class="cls-3" d="M386.76923,141.911a2.1001,2.1001,0,0,0-3.079-.76811c-1.79014,1.2582-3.73256,2.59973-5.41709,3.80652a6.04023,6.04023,0,0,0-1.93889,1.85973,1.94584,1.94584,0,0,0,.34225,2.45682,2.65166,2.65166,0,0,0,2.58331-.12936c.2617-.11842,4.47886-2.955,6.81829-4.53316a2.09443,2.09443,0,0,0,.69118-2.69244Z"/><path class="cls-3" d="M385.99675,137.58471a2.1,2.1,0,0,0-3.089-.72692c-1.77315,1.28187-3.69757,2.6492-5.36586,3.87844a6.04044,6.04044,0,0,0-1.91393,1.88535,1.94589,1.94589,0,0,0,.375,2.45209,2.65174,2.65174,0,0,0,2.58136-.16389c.26012-.12185,4.43905-3.01446,6.75723-4.62363a2.09447,2.09447,0,0,0,.65517-2.70144Z"/><path class="cls-3" d="M385.57469,132.61576a2.32271,2.32271,0,0,0-3.45879-.877c-2.01815,1.45651-4.20779,3.00963-6.10706,4.40657a6.9349,6.9349,0,0,0-2.18788,2.15076,2.28107,2.28107,0,0,0,.37454,2.83276c.82269.60859,1.97676.27571,2.90524-.15684.29483-.13734,5.04847-3.42158,7.68561-5.24865a2.46242,2.46242,0,0,0,.78843-3.10763Z"/><path class="cls-20" d="M376.45725,141.53989a20.52134,20.52134,0,0,0,3.76959-2.34091,20.52265,20.52265,0,0,0,3.493-2.73726,40.7483,40.7483,0,0,0-7.26262,5.07817Z"/><path class="cls-20" d="M377.63917,145.41267a35.72026,35.72026,0,0,0,6.92093-4.57408,35.73312,35.73312,0,0,0-6.92093,4.57408Z"/><path class="cls-20" d="M377.55333,150.28845a35.724,35.724,0,0,0,6.92083-4.57408,35.7161,35.7161,0,0,0-6.92083,4.57408Z"/><path class="cls-16" d="M242.54424,125.51543c-.06849.04037-.29093-.34086-.83651-.724a3.79957,3.79957,0,0,0-2.43594-.65388,5.56062,5.56062,0,0,0-2.441.87354c-.58038.36127-.91512.64014-.96606.58771-.043-.04158.20871-.41157.76858-.86658a4.844,4.844,0,0,1,2.60047-1.0764,3.64763,3.64763,0,0,1,2.68771.869C242.47417,125.03055,242.5937,125.49826,242.54424,125.51543Z"/><ellipse class="cls-20" cx="261.65124" cy="129.31253" rx="4.89211" ry="1.88158"/><ellipse class="cls-20" cx="236.06174" cy="129.31253" rx="4.89211" ry="1.88158"/><path class="cls-20" d="M246.38356,157.039l2.09661.49726s7.04519,1.73868,15.36034-4.00552c0,0-1.97433,9.27616-14.6077,8.52132l-.00258-.01543-1.879-.03836C247.72754,158.18135,246.38356,157.039,246.38356,157.039Z"/><path class="cls-16" d="M262.87111,151.06957a11.16143,11.16143,0,0,0,2.14447-4.36686,25.94559,25.94559,0,0,0,.21522-3.60678c.36828-6.98693,5.11433-13.019,3.848-20.19111-.01466-.02986-.02582-.06068-.04089-.09045-1.7479-3.45915-5.54524-5.2857-8.35746-7.95253a17.739,17.739,0,0,1-3.03387-21.13862c3.57721-5.83961,12.40112-3.93662,18.08427-1.97015s9.91431,8.48016,11.60347,14.25183c.9321,3.185.86706,6.68214,2.39529,9.628,1.644,3.16915,4.876,5.20283,6.912,8.13561a18.62159,18.62159,0,0,1,2.62769,13.3452c-.355,2.26543-1.63429,4.32716-1.44991,6.62606a12.92681,12.92681,0,0,0,3.13864,6.854c2.18486,2.68748,4.9298,4.94335,6.68864,7.92707,1.32061,2.24029,3.09541,10.05705-1.44628,9.76373-6.47393-.41811-12.72512,1.54561-19.12605,1.29374-4.62954-.18217-8.60853-2.84413-13.40866-1.5892a28.94392,28.94392,0,0,0-5.13458,2.22424,11.78716,11.78716,0,0,1-5.35426,1.46375c-8.231-.2345-5.571-12.95586-2.83872-17.16066C261.1066,153.3339,262.03548,152.22042,262.87111,151.06957Z"/><path class="cls-23" d="M263.98044,95.38794a18.54679,18.54679,0,0,1,17.06105,11.52143,21.17606,21.17606,0,0,1,1.23822,7.75759c.031,3.16339-.124,6.42987,1.07708,9.4242,1.0033,2.50127,2.75077,4.59527,4.261,6.79624a20.27661,20.27661,0,0,1,1.98309,3.457,12.56252,12.56252,0,0,1,.96224,4.186,43.96823,43.96823,0,0,1-.62275,8.36492,19.50654,19.50654,0,0,0-.22931,4.61421,13.92123,13.92123,0,0,0,.76512,3.31647,7.97039,7.97039,0,0,0,3.97547,4.72213,6.01689,6.01689,0,0,0,1.49034.42856c.04412.007-.03313.74739,0,.75263-4.53042-.71723-6.25918-5.93214-6.31861-9.93008a65.92678,65.92678,0,0,1,.78214-8.23116,16.40567,16.40567,0,0,0-.11746-5.32857,13.30786,13.30786,0,0,0-1.53449-3.81819c-1.34307-2.3271-3.13843-4.35668-4.47268-6.68948a13.86579,13.86579,0,0,1-1.54055-3.90344,22.42011,22.42011,0,0,1-.4415-4.32253c-.069-3.03936.1406-6.1264-.6698-9.09123a17.52264,17.52264,0,0,0-3.33679-6.401,18.49534,18.49534,0,0,0-12.52222-6.82073,16.413,16.413,0,0,0-1.78961-.05233c.00038,0-.01165-.75236,0-.75263Z"/><path class="cls-23" d="M264.07835,95.86528a35.34818,35.34818,0,0,1,8.34065,11.1705,33.20037,33.20037,0,0,1,2.352,13.75079c-.01348,2.36969-.16194,4.73461-.35033,7.0961-.10088,1.26453-.21209,2.5282-.31659,3.79243a29.21762,29.21762,0,0,0-.1948,4.2248,10.37252,10.37252,0,0,0,.90757,3.72851c.52162,1.1288,1.20984,2.16947,1.7739,3.27616a13.373,13.373,0,0,1,1.36421,6.2143c-.00916,5.31781-2.43314,10.21622-4.91543,14.789.10388-.19136-.10643-.55656,0-.75263,2.1832-4.02183,4.37187-8.31788,4.83325-12.93917a11.99176,11.99176,0,0,0-1.3963-6.77945c-.54015-1.02552-1.1728-2.00206-1.65963-3.05558a10.17453,10.17453,0,0,1-.883-3.40263,34.87177,34.87177,0,0,1,.15609-5.88428c.20282-2.46886.43434-4.936.56752-7.41.27574-5.12205.01456-10.36354-1.93194-15.17188a34.60993,34.60993,0,0,0-8.64718-11.89436c-.12809-.12093.12213-.63732,0-.75263Z"/><path class="cls-3" d="M103.82831,477.60182a23.21639,23.21639,0,0,1,3.379-4.17069s6.40179,2.19687,6.53167,2.88471c.29941,1.58645.20674,4.84824.47654,6.44015.11688.69012.3559,3.038-.29122,3.245-.56247.18-1.60868-1.59859-2.00855-2.50629-1.87983,4.17546-4.5722,5.36084-3.39685,1.10855-.00477-.0018.00475.00186,0,0-.41794.88258-1.15,2.0187-2.434,1.52206-.65955-.25511-.62862-1.53261.04377-2.99192-.38271.52721,0,0-.01234-.008-.80852,1.42128-1.82343,2.19588-2.325,1.06051a3.27008,3.27008,0,0,1,.01953-2.66438s-1.11371,1.19473-1.73692.24446c-.67469-1.02886.65435-2.31009,1.40646-3.67165A2.5982,2.5982,0,0,1,103.82831,477.60182Z"/><path class="cls-3" d="M356.47546,423.17247s-11.83889,18.03726-15.0178,15.26526c-4.85039-4.22953-3.23173-17.7994-3.23173-17.7994l-10.35733-.36577s-6.74284,25.95818,4.41736,35.6252c9.00939,7.804,24.3047-9.80439,24.3047-9.80439l6.02873-17.78942Z"/><path class="cls-24" d="M394.2733,492.1377c-.51863,2.031-13.4426,4.41631-27.813.06024-25.44745-7.71387-25.17465-11.6375-24.65606-13.66852s12.583-.58616,27.12515,3.176S394.79192,490.10666,394.2733,492.1377Z"/><path class="cls-25" d="M403.82048,434.01463s-.1353-11.28549-19.22572-15.68086c-27.53028-6.33857-31.0348,20.63881-42.79053,60.19565,0,0,28.07134,2.08618,52.46907,13.60828C394.2733,492.1377,406.05446,451.71334,403.82048,434.01463Z"/><path class="cls-26" d="M342.42936,481.62323c-.369,5.18484-1.14979,16.74882-2.04773,30.05437a4.83518,4.83518,0,0,0,1.15529.13955l4.14045.00373,15.886.01138,2.82451.00143,2.25248.00064,2.301-11.4312,2.09619-7.02609,2.03224-6.81661s-9.51756-2.59293-17.94546-4.29318c-.02415-.00537-.04834-.01077-.07277-.014-2.29324-.4618-4.505-.85559-6.41814-1.113l-.07114-.00941c-3.35629-.44386-5.77851-.46031-6.09482.34113l-.00029.00218A.43323.43323,0,0,0,342.42936,481.62323Z"/><path class="cls-25" d="M413.486,432.10549l-16.39431,6.35765s-27.93023-3.54251-34.90122-6.4163-7.6878-8.87543-7.6878-8.87543a40.74,40.74,0,0,1,23.28929-5.88328,39.11922,39.11922,0,0,1,3.94631.40585,41.24619,41.24619,0,0,1,6.609,1.62693C409.352,426.25529,413.486,432.10549,413.486,432.10549Z"/><path class="cls-3" d="M387.78467,416.47316l-.32946-5.17835-.09561-1.50749-.56323-8.864-2.22119,8.19349-1.3325,4.9181-.42187,1.55677a3.65377,3.65377,0,0,1-2.00168,2.57574c-1.06791.4421-2.8132,1.46308-.81662,2.99175,2.487,1.90474,8.21727,1.082,10.77663-1.01534C390.02722,419.78788,387.89116,418.14668,387.78467,416.47316Z"/><ellipse class="cls-24" cx="404.13559" cy="438.89546" rx="11.59405" ry="4.20378" transform="translate(-176.71252 302.62267) rotate(-34.15771)"/><path class="cls-27" d="M381.15732,396.37777a11.68252,11.68252,0,0,0-1.03994,4.53353c-.07493,2.635,3.80763-3.01246,3.80763-3.01246Z"/><ellipse class="cls-3" cx="386.4614" cy="404.10961" rx="9.13586" ry="7.26055" transform="translate(-123.33149 633.82291) rotate(-70.53521)"/><path class="cls-27" d="M394.02653,404.13646l-3.344-1.13991a2.52858,2.52858,0,0,1-1.58338-1.58488c-.43944-1.30389-1.15006-2.08221-4.3776-2.67441-4.08679-.74985-6.18387-3.86694-6.11462-6.17451a2.51451,2.51451,0,0,1,4.2819-1.88749c1.78782,1.53149,1.51939-1.30114,3.53993-1.14228,3.77577.29679,3.78667,3.38818,6.80172,3.96391,3.95328.75488,10.27005,5.44027,5.28393,11.89455Z"/><path class="cls-9" d="M386.1743,403.65294a.1557.1557,0,0,1,.12765-.2614,1.56606,1.56606,0,0,1,1.43,1.35342.15844.15844,0,0,1-.11058.18634c-.07946.021-.142-.03481-.17728-.11046a2.473,2.473,0,0,0-1.18669-1.12538A.14153.14153,0,0,1,386.1743,403.65294Z"/><path class="cls-9" d="M386.35639,405.713c-.16925.32443-.4882.48852-.71248.36648a.60248.60248,0,0,1-.09959-.80836c.16924-.32442.48824-.48848.71248-.36645A.60247.60247,0,0,1,386.35639,405.713Z"/><path class="cls-9" d="M380.9635,402.01706a.10831.10831,0,0,1-.06052-.092.19067.19067,0,0,1,.10221-.18994,1.00344,1.00344,0,0,1,1.42438.50173.18908.18908,0,0,1-.04512.21.10626.10626,0,0,1-.16372-.01324,1.484,1.484,0,0,0-1.18256-.41825A.09494.09494,0,0,1,380.9635,402.01706Z"/><path class="cls-9" d="M381.92108,403.845c-.03875.364-.27618.64036-.53033.61722-.25409-.02315-.42869-.337-.38993-.701s.2762-.64033.53033-.61718S381.95987,403.481,381.92108,403.845Z"/><path class="cls-27" d="M398.51439,405.39144s-3.58971,4.79641-7.03763,4.43409c0,0,3.64674-3.451-1.509-7.20867C389.96779,402.61686,395.42022,402.93344,398.51439,405.39144Z"/><path class="cls-3" d="M393.10585,407.26974a1.46006,1.46006,0,0,1-1.95976-.80636,1.61068,1.61068,0,0,1,1.03681-1.94814,1.4601,1.4601,0,0,1,1.95977.80636A1.61068,1.61068,0,0,1,393.10585,407.26974Z"/><path class="cls-5" d="M381.51717,408.5838c-.13232.577.04663,1.10883.39972,1.188s.74659-.3243.87895-.90125-.04661-1.1088-.39973-1.188S381.64952,408.00689,381.51717,408.5838Z"/><path class="cls-24" d="M358.08734,430.10244a27.39276,27.39276,0,0,1,5.02891-5.9789l-.21869-.24623a27.748,27.748,0,0,0-5.10175,6.07191Z"/><path class="cls-28" d="M345.67737,511.82088l15.886.01138,2.82451.00143,2.25248.00064,24.23919.01957,1.32773-18.38545.00029-.00216s-12.10038-6.508-37.08328-11.199c-.02415-.00537-.04834-.01077-.07277-.014q-3.03879-.57036-6.334-1.09969c-.02662-.00352-.05525-.00951-.08413-.01333l-.07114-.00941c-1.63627-.19656-2.78277.7263-3.53326,2.536C343.07254,488.38848,343.8232,499.14661,345.67737,511.82088Z"/><path class="cls-8" d="M361.54129,511.99858l.014.00122a.16772.16772,0,0,0,.17566-.1593c.144-2.93489.62109-12.72221.71951-15.44713a8.84451,8.84451,0,0,0-2.58051-6.41385.16768.16768,0,0,0-.22465.249,8.49517,8.49517,0,0,1,2.47008,6.15272c-.09832,2.72278-.57544,12.50862-.71938,15.44289A.16786.16786,0,0,0,361.54129,511.99858Z"/><path class="cls-29" d="M331.26124,425.8362l.11074-.28212c-4.4832-1.75668-3.55607-4.48086-3.51443-4.596l-.28446-.10418C327.56169,420.88478,326.49081,423.96681,331.26124,425.8362Z"/><path class="cls-3" d="M376.10229,457.90343a39.91634,39.91634,0,0,0,6.73084,5.88955s9.58488-5.24277,9.57754-6.39382c-.017-2.65486-3.53134-8.40392-5.17742-11.18225-3.8843-6.55591-9.5931-8.96279-5.79908-.91173-.00708.00422.007-.00423,0,0-.94758-1.324-2.38357-3.938-4.28845-2.79547-.97852.58693-.62334,3.61386.91348,5.808-.77951-.75609,0,0-.01737.01624-1.74325-2.09679-4.18631-3.56011-4.6351-1.58485-.56335,2.47933,1.43834,4.79287,1.43834,4.79287s-3.01242-2.8101-3.71454-1.10372c-.76013,1.84746,2.62494,4.74165,4.259,6.75614A4.48053,4.48053,0,0,0,376.10229,457.90343Z"/><path class="cls-3" d="M412.59606,433.37651s16.43535,34.64133,4.61164,46.63722-37.30283-19.11611-37.30283-19.11611l6.69552-7.38094,14.04069,7.15682s-5.34776-13.88245-4.03841-16.80227C398.4044,439.85334,410.22988,431.82393,412.59606,433.37651Z"/><path class="cls-29" d="M409.11026,467.52588l.24147-.18279c-.04606-.06083-4.66765-6.1114-9.67166-7.325l-.0716.29457C404.50872,461.50075,409.06476,467.46576,409.11026,467.52588Z"/><path class="cls-4" d="M353.6113,405.181l-1.28578,29.40563a3.50542,3.50542,0,0,1-3.75257,3.29083l-14.09256-.87257a3.42409,3.42409,0,0,1-3.25859-3.534l1.2672-28.97872a3.50261,3.50261,0,0,1,3.644-3.29592l14.11107.44571A3.42764,3.42764,0,0,1,353.6113,405.181Z"/><path class="cls-5" d="M351.34555,404.57484a.92625.92625,0,1,0-.76916,1.03726A.91558.91558,0,0,0,351.34555,404.57484Z"/><path class="cls-3" d="M328.59084,418.8414s-2.43417,3.27418.41323,5.48983c3.62789,2.8229,7.96543,2.40992,6.81132.66445-.22786-.34463-3.67436-3.00226-3.67436-3.00226s8.72621,3.86578,8.9222,1.6934S333.71,418.2973,333.71,418.2973s8.85605,2.92413,8.4017.8249-7.29055-5.06515-7.29055-5.06515,8.496,3.34511,7.9129.92084-5.33494-3.22221-7.263-4.03916c-1.82208-.772-2.91889.20773-3.55129,2.10139,0,0-1.6783,1.53053-1.79252,2.86872-.04379.51308-.63994.78863-.81537,1.10591A13.41846,13.41846,0,0,0,328.59084,418.8414Z"/><path class="cls-30" d="M394.46712,396.44421c3.30043.09569,5.1168,4.04607,4.03647,6.8933-.06408.1689.063.4091,0,.57514a6.63373,6.63373,0,0,0,.3511-2.43281,7.30051,7.30051,0,0,0-.38807-2.45106,4.53967,4.53967,0,0,0-3.9995-3.15971c.00133,0-.00993.57485,0,.57514Z"/><path class="cls-30" d="M397.1821,405.02993l-.3698.24638a.47669.47669,0,0,0-.002.08423c-.00073.06777-.00088.13557-.00085.20334s.00007.13557.00085.20334l.00058.045a.3867.3867,0,0,0,.00145.03926l.3698-.24639a.47657.47657,0,0,0,.002-.08422c.00072-.06778.00087-.13557.00084-.20334s-.00006-.13557-.00084-.20335l-.00058-.045a.38951.38951,0,0,0-.00145-.03926Z"/><path class="cls-3" d="M480.88489,310.37671a25.41787,25.41787,0,0,0-2.30124-5.50819s-7.82364.0436-8.20262.71268c-.8742,1.54315-1.889,4.96355-2.73228,6.52266-.36559.676-1.43381,3.03118-.78992,3.47253.55958.38354,2.32445-1.09814,3.077-1.90108.64614,4.99422,3.89575,11.999,3.32629,1.43695l.01788-.001c.15942,1.06277,1.04671,6.97562,2.42582,6.21125,1.21719-.67464.76315-4.93367.52025-6.68456l.04948-.012c.40614,1.75892,1.50015,5.97981,2.443,4.97574,1.18358-1.26022.80129-5.94021.80129-5.94021s.62446,5.96851,2.17406,4.67712c1.05678-.88082-.22658-5.64615-.591-7.3233A2.79152,2.79152,0,0,0,480.88489,310.37671Z"/><path class="cls-31" d="M418.85313,279.2872c-6.6209,1.216-19.70817,3.70825-29.49142-2.9485a61.28014,61.28014,0,0,1-10.11031-9.13559l7.23336-10.00517-3.61666,5.00255,3.60618-5.01c3.76642,2.64433,9.99823,10.70925,18.72929,8.63359,3.964-.94348,8.577-1.52656,13.35222-8.37707l12.59995,4.27758C427.19407,269.40909,428.34935,277.91956,418.85313,279.2872Z"/><path class="cls-3" d="M396.36747,268.52821s-4.11328-5.91946-8.29428-7.74243c-4.1808-1.823-6.8319-.31079-6.8319-.31079l-4.48647-1.73089s-.64313,16.44388,11.01723,13.5467C388.69253,272.06208,396.36747,268.52821,396.36747,268.52821Z"/><path class="cls-4" d="M377.42284,250.17235l4.28555,23.83556a2.9048,2.9048,0,0,0,3.44449,2.2742l11.48261-2.24717a2.8186,2.8186,0,0,0,2.28921-3.23652l-4.22341-23.48957a2.90181,2.90181,0,0,0-3.35581-2.29023l-11.54468,1.90124A2.82227,2.82227,0,0,0,377.42284,250.17235Z"/><path class="cls-5" d="M379.218,249.85885a1.22354,1.22354,0,1,1,1.18833,1.21381A1.20548,1.20548,0,0,1,379.218,249.85885Z"/><path class="cls-3" d="M374.77947,259.30368s-1.51062-3.20179,1.524-4.51354c3.86643-1.67127,10.34193-.17168,7.90706.91975a31.79674,31.79674,0,0,1-5.5657,1.63249s8.68694-1.57383,8.40844.28061c-.2786,1.85448-7.76712,3.10958-7.76712,3.10958s8.60668-.7615,7.75648.90808-7.64255,2.85011-7.64255,2.85011,8.37-1.18206,7.33539.73489c-1.03457,1.91694-5.49093,1.68058-7.40255,1.99719-1.80651.29919-2.59111-.729-2.76494-2.43325,0,0-1.19392-1.59951-1.01652-2.74058.06805-.43758-.41227-.78142-.50405-1.08019A10.69026,10.69026,0,0,1,374.77947,259.30368Z"/><path class="cls-8" d="M463.37025,305.34967c-.04568,1.72431-10.83753,2.40909-24.185,2.00684-13.34746-.40231-24.01348-2.18562-23.9678-3.90993s10.78573-2.73658,24.13326-2.33433C452.69815,301.51453,463.416,303.62539,463.37025,305.34967Z"/><path class="cls-31" d="M460.10292,256.53355s-2.36018-9.03782-19.77431-9.12954c-25.1128-.13218-22.78753,22.16162-25.11118,56.04257,0,0,15.2255-6.14111,48.15282,1.90309C463.37025,305.34967,465.55607,270.34328,460.10292,256.53355Z"/><path class="cls-31" d="M466.53079,255.23744,455.157,261.31736s-25.44614,5.42357-32.05712,4.37125c-6.61108-1.05229-7.88264-3.66227-7.88264-3.66227s7.04146-12.35771,19.00938-14.2369c1.12454-.178,2.2906-.30868,3.49992-.38473a35.59139,35.59139,0,0,1,6.04955.11631C458.94459,249.17258,466.53079,255.23744,466.53079,255.23744Z"/><path class="cls-3" d="M442.7227,245.33552l-1.31466-4.09883-.38249-1.19332-2.24968-7.01634-.296,6.97932-.17706,4.18916-.05612,1.3261c-.038.90008-.606,1.08934-1.29711,1.87156-.28.31687-2.07193,2.23864-.03821,3.1066,2.53337,1.08164,7.26948-.556,9.07015-2.70111C445.96735,247.79565,443.14752,246.6602,442.7227,245.33552Z"/><path class="cls-3" d="M469.89047,308.32435c-1.04707-11.13671-3.44889-27.059-8.9466-39.66885a37.61366,37.61366,0,0,0-2.798-5.61429c-.79944-1.28375.632-4.10537,2.89053-5.45084,2.11926-1.26247,5.41921-1.05573,5.94124-.43077.88789,1.063,1.8352,3.09949,3.30951,6.3334,5.12279,11.23608,8.192,25.75055,9.43534,44.46368Z"/><path class="cls-32" d="M432.98661,230.39246a8.91451,8.91451,0,0,0,0,3.82767c.4588,2.12937,2.70032-3.10468,2.70032-3.10468Z"/><path class="cls-3" d="M432.72,234.83427c.55948-4.11707,3.87791-7.09126,7.41187-6.643s5.94538,4.14923,5.3859,8.26631-3.87785,7.09127-7.41188,6.643C434.572,242.65233,432.16063,238.95138,432.72,234.83427Z"/><path class="cls-9" d="M438.77941,235.331a.12547.12547,0,0,1-.06055-.09654.12765.12765,0,0,1,.11922-.13634,1.43228,1.43228,0,0,1,1.50795.82928.12531.12531,0,0,1-.0588.16953.14621.14621,0,0,1-.17548-.05679,2.26655,2.26655,0,0,0-1.25189-.69A.13413.13413,0,0,1,438.77941,235.331Z"/><path class="cls-9" d="M439.34662,236.95241c-.0822.291-.32593.48015-.54447.42254a.48364.48364,0,0,1-.247-.63117c.08217-.291.32593-.48015.54451-.42258A.48365.48365,0,0,1,439.34662,236.95241Z"/><path class="cls-9" d="M433.93951,234.95571a.09438.09438,0,0,1-.07073-.063.149.149,0,0,1,.05083-.17088.93926.93926,0,0,1,1.33383.14635.14627.14627,0,0,1,.00265.17673.099.099,0,0,1-.14454.01888,1.41526,1.41526,0,0,0-1.10772-.12293A.08928.08928,0,0,1,433.93951,234.95571Z"/><path class="cls-9" d="M435.1325,236.25107a.48829.48829,0,0,1-.33687.59114c-.22475.02713-.43837-.19346-.47714-.49271a.48822.48822,0,0,1,.3368-.59111C434.88005,235.73118,435.0937,235.95178,435.1325,236.25107Z"/><path class="cls-2" d="M449.81677,234.50477s-2.157,4.49791-5.21637,4.82791c0,0,2.47375-3.42784-2.74014-5.51682C441.86026,233.81586,446.64734,233.08818,449.81677,234.50477Z"/><path class="cls-3" d="M445.504,236.987a1.366,1.366,0,0,1-1.85828-.29463,1.26717,1.26717,0,0,1,.51113-1.75108,1.36592,1.36592,0,0,1,1.85827.2946A1.26721,1.26721,0,0,1,445.504,236.987Z"/><path class="cls-2" d="M441.86026,233.81586s.41758,3.77456-.37759,4.48806-6.04565,1.02056-8.49606.10577v0a4.97663,4.97663,0,0,0,4.20245,4.96586,7.67,7.67,0,0,0,2.50683-.00829h0c1.71525-.28974,3.38295-.97518,4.0902-2.51255.21521-.46779-.41087-3.34563-.41087-3.34563a3.17507,3.17507,0,0,1,.78159-2.56778A5.035,5.035,0,0,0,441.86026,233.81586Z"/><path class="cls-2" d="M441.86026,233.81586s.4312-2.63946-1.71043-2.8276-4.58427-.53614-5.42437,0a8.7184,8.7184,0,0,0-1.84386,2.64072s-1.17481-3.95743.97809-5.65034c2.153-1.69291,9.01584-3.92065,13.39638-.97277a6.31543,6.31543,0,0,1,2.5607,7.4989A26.35079,26.35079,0,0,0,441.86026,233.81586Z"/><path class="cls-2" d="M444.83042,227.00587s3.22879-2.5764,2.49863-4.48157c-.73-1.90511-4.14772-1.302-5.46879-1.004s-1.54451,2.57686-.48366,4.04737C442.43745,227.03813,444.83042,227.00587,444.83042,227.00587Z"/><path class="cls-5" d="M434.28,239.77115a13.68733,13.68733,0,0,0,4.20989.32034,2.01735,2.01735,0,0,1-2.54672,1.57479C434.64964,241.43841,434.28,239.77115,434.28,239.77115Z"/><path class="cls-8" d="M479.72247,303.93767s-6.77955.7022-10.2918,0c0,0-.45592,1.74408.27774,2.54064,0,0,8.12254.594,10.01406,0A1.66283,1.66283,0,0,0,479.72247,303.93767Z"/><path class="cls-33" d="M475.38021,302.75657h0a2.48805,2.48805,0,0,1,2.48805,2.48805v.19078a2.488,2.488,0,0,1-2.488,2.488h-.00007a2.488,2.488,0,0,1-2.488-2.488v-.19078A2.48805,2.48805,0,0,1,475.38021,302.75657Z"/><path class="cls-31" d="M466.53079,255.23744s5.74669,3.28547,11.33747,24.86437,1.38939,21.97058,1.38939,21.97058-7.54147.14021-9.967-.69559-3.72312-20.17325-8.55968-28.03745C455.89435,265.47526,454.16383,253.43367,466.53079,255.23744Z"/><path class="cls-32" d="M463.59163,281.10023l.42393-.09969a85.91938,85.91938,0,0,0-4.50114-13.10337l-.39812.171A85.51123,85.51123,0,0,1,463.59163,281.10023Z"/><path class="cls-32" d="M416.8403,279.95338c.47741-7.508,4.33893-17.15292,4.37763-17.24914l-.40549-.15313c-.04052.09618-3.926,9.8017-4.40711,17.37377Z"/><path class="cls-8" d="M452.1426,387.77031s.87127,3.13929-.94282,4.66777c-1.814,1.52841-7.60391,4.20407-4.74057,5.50339,1.64293.74556,7.51126-1.89936,9.23174-2.43646,1.7208-.53717,3.56738-.28207,4.491-1.84743,1.0161-1.722-2.33436-7.6682-2.33436-7.6682a7.1849,7.1849,0,0,1-2.59226,1.62843A5.66441,5.66441,0,0,1,452.1426,387.77031Z"/><path class="cls-8" d="M432.167,375.56716s2.22846,2.354,1.33892,4.56738-4.753,7.3349-1.62278,7.11569c1.79607-.12576,5.743-5.25751,7.01105-6.55181,1.26819-1.29447,3.01587-1.95,3.10273-3.77138.09559-2.00367-5.62532-5.65154-5.62532-5.65154a7.31078,7.31078,0,0,1-1.52957,2.67279A5.71164,5.71164,0,0,1,432.167,375.56716Z"/><path class="cls-34" d="M434.35452,305.44694c-.04826,12.45677,11.10207,67.42133,12.61812,77.33963a7.62407,7.62407,0,0,0,6.80973,6.54058l1.85735.15723a6.402,6.402,0,0,0,6.80681-6.69l-1.85173-66.73248-.09942-9.87088S434.37663,299.737,434.35452,305.44694Z"/><path class="cls-34" d="M417.26314,304.49523s-12.43158,30.24769-6.93655,45.77919c3.72267,10.52181,11.50142,20.09307,16.13226,25.17283a5.40474,5.40474,0,0,0,7.57162.42925l2.50653-2.19237a6.23954,6.23954,0,0,0,1.69615-6.942c-2.74064-7.08-8.032-21.42107-7.98692-26.49855.10451-11.76964,15.33752-36.69262,15.33752-36.69262S430.11637,301.24281,417.26314,304.49523Z"/><path class="cls-35" d="M436.0896,321.51673h.00665a.14465.14465,0,0,0,.13753-.15082,58.77482,58.77482,0,0,0-.82506-7.267,7.58252,7.58252,0,0,0-3.45031-4.827.14432.14432,0,0,0-.13789.25358,7.28044,7.28044,0,0,1,3.30544,4.62916,58.48048,58.48048,0,0,1,.81944,7.22456A.1444.1444,0,0,0,436.0896,321.51673Z"/><path class="cls-32" d="M456.15863,284.38074l7.55566,7.76208L463.5,287.21429l-34.92859-37.5c-1.42853.71424-4.07141,2.14283-4.07141,2.14283l27.15369,27.89557-32.29657-12.0384-1.28571,3.85712L433.6507,276.811l-10.75782,24.97474,4.07141-.42859,10.53492-23.25183Z"/><path class="cls-3" d="M178.63524,445.24259c5.98345.30022,12.45666-1.59975,19.26426-5.65761a55.88624,55.88624,0,0,0,8.78624-6.45892l-7.56757-8.0386,3.78378,4.01927-3.77536-4.02713c-3.00759,2.79393-12.54795,9.86438-20.4945,9.049-3.608-.37122-6.62022-2.36841-9.209-6.10583l-9.16288,6.353c4.4065,6.362,10.3458,10.0885,17.17536,10.77653Q178.03167,445.21242,178.63524,445.24259Z"/><path class="cls-3" d="M191.74837,436.32124s2.92436-5.74533,6.39516-7.85817c3.47049-2.11288,5.98817-1.08149,5.98817-1.08149l5.0384,3.59931s-2.37857,7.2621-13.006,6.06193C195.32508,436.948,191.74837,436.32124,191.74837,436.32124Z"/><path class="cls-4" d="M206.37888,418.60185l-1.1178,25.56406a3.04747,3.04747,0,0,1-3.26233,2.86092l-12.25151-.75858a2.97676,2.97676,0,0,1-2.83288-3.07227l1.10165-25.19292a3.045,3.045,0,0,1,3.16791-2.86534l12.26759.38748A2.97983,2.97983,0,0,1,206.37888,418.60185Z"/><path class="cls-5" d="M204.40914,418.07485a.80525.80525,0,1,0-.66868.90176A.796.796,0,0,0,204.40914,418.07485Z"/><path class="cls-3" d="M210.88079,424.95221s.95274-3.02581-1.88154-3.83444c-3.61122-1.03022-9.14824,1.06731-6.86947,1.75079a21.36445,21.36445,0,0,0,3.86341.76168s-6.61128-.34132-6.145,1.27511,5.995,1.91764,5.995,1.91764-6.45695.26973-5.50809,1.65426,7.08412,1.63329,7.08412,1.63329-7.52792-.06391-6.38689,1.51892,5.04608.84687,6.77094.90291c1.63.053,2.20021-.95394,2.151-2.4902a4.3604,4.3604,0,0,0,.57145-2.55735c-.11206-.38107.271-.74353.31646-1.02011A9.65579,9.65579,0,0,0,210.88079,424.95221Z"/><path class="cls-2" d="M163,397c1.8508,2.0498,2.62164,4.78012,4.06583,10.177C168.08705,410.99335,172.286,426.685,168,430a4.12811,4.12811,0,0,1-3,1c-1.153-.1846-1.60321-1.02676-2.30632-1.49509-1.99739-1.33044-5.34152.571-10.49751,3.38294-11.38141,6.20718-13.56143,1.51657-14.91555.68265-2.46862-1.5203-3.406-4.537-5.28062-10.5705-2.555-8.223-3.83246-12.33447-2.40869-17.55963C130.20139,403.20142,132.2296,397.36569,138,394a18.87087,18.87087,0,0,1,9.71988-2.35184C150.02747,391.60657,158.00047,391.46286,163,397Z"/><path class="cls-36" d="M157.41608,513.18054h23.47308c-.27185-2.73242-.53754-5.51147-.78735-8.32086-2.4513-27.56958-4.37-43.12439-4.37-43.12439l-21.11627,7.21777,1.71728,21.16376Z"/><path class="cls-8" d="M137.08832,479.05745c.27646,1.72287,9.76245,1.164,21.3234-.77932s20.49972-4.87084,20.22323-6.59371-9.66351-1.58874-21.22442.35454S136.81184,477.33452,137.08832,479.05745Z"/><path class="cls-36" d="M159.347,513.18054l4.69471-38.17993c.0025-3.43237-19.35779,1.75726-23.79016,3.74713a2.51392,2.51392,0,0,0-1.44648,2.11487l-4.67254,32.31793Z"/><path class="cls-37" d="M136.18938,430.76067s5.34964-8.12566,17.13188-8.12218,21.65988,14.89017,25.31369,49.04593c0,0-19.44781-3.64513-41.58256,7.338C137.05239,479.02241,131.61483,444.905,136.18938,430.76067Z"/><path class="cls-37" d="M128.21368,428.84823l11.02992,7.68332s21.51575,1.42171,27.15744.14968c5.6417-1.27211,6.659-8.77581,6.659-8.77581a25.68734,25.68734,0,0,0-16.425-5.80622c-1.697-.0122-5.91121-.01849-7.63334.03052C132.99231,422.585,128.21368,428.84823,128.21368,428.84823Z"/><path class="cls-8" d="M159.06415,513.18054l1.72931-18.99328a15.78379,15.78379,0,0,1,5.72119-9.6908l-.26239-.33313a16.21479,16.21479,0,0,0-5.87885,9.96771l-1.735,19.0495Z"/><path class="cls-3" d="M146.129,422.313a3.29511,3.29511,0,0,0,2.09661-2.59174l.58412-3.74807.16926-1.08784.99632-6.39618,1.05072,6.10337.63012,3.66351.17973,1.04429c.14657.85209.60965,2.476.98466,2.612,0,0,2.32061.71283.69047,1.7419-1.91548,1.20956-5.6993.36648-7.39977-1.33456Z"/><path class="cls-8" d="M148.7793,415.87546q.01363.04929.0304.09777a3.8483,3.8483,0,0,0,2.837,2.29659l.0095-.01374-.63015-3.6635a2.98023,2.98023,0,0,0-2.047.29281A.88291.88291,0,0,0,148.7793,415.87546Z"/><path class="cls-3" d="M155.93347,408.00544c-.94055-3.83971-4.1473-6.33607-7.16247-5.57583-3.01514.76018-4.69692,4.48913-3.75634,8.32883s4.14729,6.33607,7.16243,5.57586S156.874,411.84513,155.93347,408.00544Z"/><path class="cls-5" d="M154.51619,413.1395a11.854,11.854,0,0,1-3.88461.30866,1.90429,1.90429,0,0,0,2.36081,1.55419C154.18516,414.7801,154.51619,413.1395,154.51619,413.1395Z"/><path class="cls-9" d="M151.01853,409.31588a.13056.13056,0,0,0,.06417-.097.13259.13259,0,0,0-.10965-.14921,1.36042,1.36042,0,0,0-1.517.77532.13578.13578,0,0,0,.04886.18017.13742.13742,0,0,0,.17448-.04879,2.146,2.146,0,0,1,1.25945-.64526A.12461.12461,0,0,0,151.01853,409.31588Z"/><path class="cls-9" d="M150.381,410.97221c.0655.30817.29419.51973.51084.47256s.33922-.33512.27373-.64322-.29418-.5197-.51086-.47253C150.4381,410.37615,150.31553,410.66414,150.381,410.97221Z"/><path class="cls-9" d="M155.61471,408.86646a.12629.12629,0,0,0,.0954-.0642.13479.13479,0,0,0-.04654-.18049,1.3553,1.3553,0,0,0-1.694.11921.13529.13529,0,0,0-.02137.18519.13813.13813,0,0,0,.18.02346,2.131,2.131,0,0,1,1.407-.10036A.12518.12518,0,0,0,155.61471,408.86646Z"/><path class="cls-9" d="M154.41079,410.14268c-.05319.30962.08077.59434.29918.63594s.43859-.17573.49182-.48533c.05318-.30966-.08078-.59434-.29919-.636C154.6842,409.61578,154.464,409.83305,154.41079,410.14268Z"/><path class="cls-38" d="M128.21368,428.84823c-1.09833,1.7691.86657,3.66989,4.94362,6.48456s5.86739,3.76451,6.96569,1.99545.01909-4.36189-4.03011-7.21973C133.12153,428.01138,129.31205,427.07915,128.21368,428.84823Z"/><path class="cls-36" d="M141.70216,478.17213s20.25258-7.9951,35.35785-4.9181l-3.29143,2.61377-13.194,2.55328Z"/><path class="cls-3" d="M145.37391,411.78121a1.35493,1.35493,0,0,0,1.96555-.34745,1.62553,1.62553,0,0,0-.81456-1.99,1.355,1.355,0,0,0-1.96555.34741A1.62545,1.62545,0,0,0,145.37391,411.78121Z"/><path class="cls-36" d="M146.27994,416.37655c-.03594.0048-.06954.00843-.10062.01115a2.18441,2.18441,0,0,1-2.24928-1.24324,3.79,3.79,0,0,1,.70655-2.93964.14628.14628,0,0,1,.23467.17471,3.56311,3.56311,0,0,0-.6611,2.68094,1.88158,1.88158,0,0,0,1.94408,1.03583,2.00978,2.00978,0,0,0,1.75242-2.01515,2.56858,2.56858,0,0,0-.50031-2.091,2.72988,2.72988,0,0,0-1.84383-.7917.14611.14611,0,0,1-.14611-.14633.14326.14326,0,0,1,.14635-.146,2.98977,2.98977,0,0,1,2.06253.89011,2.84372,2.84372,0,0,1,.57168,2.31992A2.24918,2.24918,0,0,1,146.27994,416.37655Z"/><path class="cls-36" d="M155.4255,415.98128a2.73741,2.73741,0,0,1-1.07412-.06708.14624.14624,0,0,1,.08908-.27858,2.23166,2.23166,0,0,0,2.59984-1.11029,2.34224,2.34224,0,0,0-.33927-2.86839.14627.14627,0,0,1,.202-.21163,2.67264,2.67264,0,0,1,.39109,3.22564A2.47218,2.47218,0,0,1,155.4255,415.98128Z"/><path class="cls-3" d="M113.94613,478.54814a137.47021,137.47021,0,0,1,19.07958-35.47151,39.3215,39.3215,0,0,1,4.15782-4.92964c1.10294-1.08375.48837-4.33424-1.30646-6.31344-1.68416-1.85721-4.88384-2.54648-5.54738-2.05514-1.12851.8358-2.5723,2.64238-4.83634,5.51932-7.86673,9.99576-13.35186,21.13126-19.5079,39.764Z"/><path class="cls-2" d="M151.54791,401.02209c-2.88019-.70294-6.96179,1.70423-8.27443,3.82164-1.33338,2.15075.39145,6.31945,3.294,5.42385a5.32924,5.32924,0,0,0,1.60772-.89869,14.69635,14.69635,0,0,0,3.72949-4.15117,6.09776,6.09776,0,0,0,2.31516,2.13466,3.76385,3.76385,0,0,0,.72449.37,1.76355,1.76355,0,0,0,1.59676-.19709C157.1488,407.045,154.4281,401.725,151.54791,401.02209Z"/><path class="cls-39" d="M382.49316,323.96551h0A15.55135,15.55135,0,0,1,366.94188,308.414h0a15.55125,15.55125,0,0,1,15.55128-15.55129h0A15.55131,15.55131,0,0,1,398.04445,308.414h0A15.55141,15.55141,0,0,1,382.49316,323.96551Z"/><path class="cls-5" d="M390.23968,303.02862h2.12461l-1.24556,3.56643H388.9934l-1.29472,3.68861,2.12316-.00073-1.328,3.56355-2.12171.004L385.616,316h-3.46269l.7576-2.14955h-3.59138L378.56265,316h-3.54221l.806-2.14955h-2.12533l1.27086-3.56679h2.12461l1.29472-3.68861-2.09714.00109,1.27664-3.56427,2.12172-.00325.75615-2.17413h3.53716l-.7576,2.17413h3.51764l.78218-2.17413h3.51764Zm-6.05864,7.255,1.29472-3.68861h-3.54222l-1.31929,3.68861Z"/><path class="cls-13" d="M65.15959,73.48579h0A15.55135,15.55135,0,0,1,49.6083,57.93432h0A15.55125,15.55125,0,0,1,65.15959,42.383h0A15.55131,15.55131,0,0,1,80.71088,57.93432h0A15.55141,15.55141,0,0,1,65.15959,73.48579Z"/><path class="cls-5" d="M72.92364,55.32534a3.94072,3.94072,0,0,0-7.77215.23168,3.9407,3.9407,0,0,0-7.77387-.163,5.31884,5.31884,0,0,0,.95476,3.83785,15.79545,15.79545,0,0,0,2.77908,2.93715c1.41482,1.25913,2.72208,2.44276,4.1369,3.702,1.4034-1.27165,2.59766-2.46634,4.00113-3.738a15.78634,15.78634,0,0,0,2.75329-2.96152A5.31962,5.31962,0,0,0,72.92364,55.32534Z"/><rect class="cls-40" x="27.42997" y="204.46281" width="31.31564" height="21.10783" transform="translate(-108.98486 57.02098) rotate(-32.57407)"/><path class="cls-5" d="M50.82145,197.85291a2.179,2.179,0,0,1-.0944.39373l-.3235,1.11316c-.30185.993-.72331,2.37975-1.24078,4.08208-1.0824,3.46675-2.564,8.212-4.205,13.468l-.03462.11086-.11591-.01225-.28018-.02958c-5.53891-.60149-10.55134-1.14578-14.21621-1.54378-1.79454-.20858-3.25731-.3785-4.30462-.50024-.48568-.06247-.87436-.11245-1.16878-.15029a2.23426,2.23426,0,0,1-.40548-.07167,2.23243,2.23243,0,0,1,.4115.01471l1.17438.09723c1.0496.09985,2.5156.23928,4.31413.41035,3.667.37664,8.68264.89175,14.225,1.461l.28013.02962-.15041.09849c1.67255-5.246,3.18254-9.98228,4.28568-13.44249.55319-1.69112,1.00385-3.06865,1.32653-4.055.15538-.45579.27971-.82058.374-1.09729A2.1789,2.1789,0,0,1,50.82145,197.85291Z"/><path class="cls-5" d="M35.79617,232.50043c-.07784-.01033.34885-3.71646.95287-8.2768.6043-4.562,1.15708-8.25057,1.235-8.2402.07776.01025-.34881,3.71559-.95307,8.2775C36.42687,228.82132,35.874,232.51072,35.79617,232.50043Z"/><path class="cls-5" d="M46.61385,210.15662c.02606-.074,3.53337,1.09363,7.83281,2.60769,4.30089,1.51458,7.76514,2.802,7.73908,2.876s-3.53262-1.09331-7.83351-2.60789C50.05283,211.51835,46.58779,210.23071,46.61385,210.15662Z"/><rect class="cls-40" x="342.85707" y="16.3971" width="21.10783" height="31.31564" transform="translate(101.43832 281.92812) rotate(-49.94294)"/><path class="cls-5" d="M372.10084,34.31216a2.17963,2.17963,0,0,1-.404.02744l-1.159.02356c-1.03784.00834-2.48716.02008-4.26635.03439-3.6318.00185-8.603.00437-14.10922.0072l-.11614.00005-.02291-.11428-.05541-.27623c-1.07942-5.46591-2.05627-10.41227-2.77047-14.02884-.33664-1.775-.61113-3.22178-.80759-4.25768-.08537-.48219-.15369-.86806-.20547-1.16035a2.23386,2.23386,0,0,1-.05264-.40839,2.23413,2.23413,0,0,1,.1088.39713l.25778,1.14985c.218,1.03155.5226,2.47233.89623,4.23992.73522,3.61227,1.74087,8.55294,2.85212,14.01248l.05535.2762-.13889-.11415c5.50608.03024,10.47717.05749,14.10891.07738,1.77916.02313,3.2284.042,4.26613.05553.48138.01223.86666.022,1.15889.02936A2.17771,2.17771,0,0,1,372.10084,34.31216Z"/><path class="cls-5" d="M334.54777,30.31505c-.01337-.07738,3.65114-.7765,8.18386-1.56138,4.53434-.7851,8.21978-1.35866,8.23313-1.28123.01343.07727-3.6503.77628-8.18458,1.56141C338.24741,29.8187,334.56118,30.39238,334.54777,30.31505Z"/><path class="cls-5" d="M359.10209,33.96935c.07841.00278.011,3.69872-.15052,8.25411-.16161,4.55691-.35619,8.24753-.43461,8.24475s-.0111-3.69792.1505-8.25483C358.82905,37.658,359.0236,33.9666,359.10209,33.96935Z"/><rect class="cls-40" x="450.56049" y="434.68807" width="21.10783" height="31.31564" transform="translate(-177.22703 539.55419) rotate(-52.27868)"/><path class="cls-5" d="M479.88073,451.83955a2.18038,2.18038,0,0,1-.4025.04388l-1.15706.07077c-1.03663.05063-2.48427.12143-4.2614.20824-3.62871.14986-8.59566.355-14.0972.58221l-.11605.00479-.02755-.11326-.06661-.27374c-1.3013-5.41737-2.47892-10.31982-3.33992-13.90427-.4087-1.75979-.74193-3.1942-.98044-4.22123-.105-.47831-.18894-.86107-.25259-1.151a.20639.20639,0,1,1,.05566-.01354l.30442,1.13839c.25989,1.02181.62292,2.449,1.06828,4.19987.88184,3.5793,2.088,8.47488,3.42084,13.8846l.06656.27372-.14343-.1084c5.50274-.19418,10.47081-.36956,14.10034-.49769,1.77862-.0494,3.22743-.08959,4.26485-.11838.48148-.0074.86684-.01335,1.15912-.0179A2.17832,2.17832,0,0,1,479.88073,451.83955Z"/><path class="cls-5" d="M442.196,449.37624c-.01652-.07677,3.61646-.92467,8.11342-1.89363,4.49857-.96924,8.15758-1.69252,8.17408-1.6157.01657.07666-3.61563.9244-8.11415,1.89367C445.87229,448.72952,442.2125,449.453,442.196,449.37624Z"/><path class="cls-5" d="M466.8788,452.02679c.07847-.00042.16176,3.6952.186,8.25338.02424,4.55972-.01977,8.2552-.09823,8.25562-.07852.00039-.16181-3.6944-.18606-8.25411C466.75633,455.72352,466.80026,452.02723,466.8788,452.02679Z"/><path class="cls-14" d="M50.92993,467.20941h0a17.21617,17.21617,0,0,1-19.21074-14.9581h0A17.21614,17.21614,0,0,1,46.67713,433.0406h0a17.21615,17.21615,0,0,1,19.2108,14.95793h0A17.21619,17.21619,0,0,1,50.92993,467.20941Z"/><polygon class="cls-5" points="37.262 449.36 40.82 461.483 43.911 460.87 41.512 448.775 37.262 449.36"/><path class="cls-5" d="M42.14884,448.71613l1.80467-.35787,2.84994-6.26962-.71441-3.60236s2.75533-.72473,3.36268,4.0573c.607,4.78232.72408,3.51072.72408,3.51072s5.92744-1.15179,6.52156-.73483c.4322.30277,1.76072,6.15409,2.45543,9.33263a3.52167,3.52167,0,0,1-1.75777,3.96523,2.63147,2.63147,0,0,1-.62048.21227c-1.47716.293-9.26325.58879-9.26325.58879l-3.1174.61819Z"/><rect class="cls-40" x="427.39114" y="147.06628" width="31.31564" height="21.10783" transform="translate(-24.77259 205.36437) rotate(-25.41088)"/><path class="cls-5" d="M452.86252,141.5547a2.18033,2.18033,0,0,1-.14276.37889l-.45978,1.06413c-.42333.94762-1.01441,2.271-1.74012,3.8955-1.50624,3.30472-3.568,7.8282-5.85163,12.83856l-.04817.10568-.11348-.02661-.2743-.06429c-5.42068-1.28747-10.32612-2.45255-13.91275-3.30443-1.75453-.43072-3.18469-.78172-4.20865-1.03311-.4741-.12254-.85351-.2206-1.14091-.29485a2.23407,2.23407,0,0,1-.39339-.12168,2.2326,2.2326,0,0,1,.40646.06591l1.15308.24291c1.029.23,2.46614.5511,4.2293.9451,3.59145.831,8.50367,1.96748,13.93177,3.22336l.27425.06432-.16152.079c2.31365-4.99649,4.40244-9.50752,5.92845-12.80316.75975-1.60894,1.37867-2.91952,1.82182-3.858.211-.43285.37986-.7793.50789-1.04209A2.17734,2.17734,0,0,1,452.86252,141.5547Z"/><path class="cls-5" d="M433.63411,174.05821c-.076-.02.80954-3.64395,1.97751-8.09339,1.16844-4.451,2.17686-8.04189,2.25285-8.02188.07588.01986-.80941,3.64309-1.9778,8.09405C434.71865,170.48646,433.71,174.07812,433.63411,174.05821Z"/><path class="cls-5" d="M447.15354,153.23771c.03508-.07018,3.36941,1.52569,7.4465,3.56405,4.07846,2.03906,7.35513,3.74844,7.32005,3.81862-.03513.07022-3.36872-1.52528-7.44718-3.56434C450.39586,155.01764,447.11844,153.308,447.15354,153.23771Z"/></svg>